<?xml version="1.0" encoding="utf-8"?>
<!-- Generator: Adobe Illustrator 16.0.0, SVG Export Plug-In . SVG Version: 6.00 Build 0)  -->
<!DOCTYPE svg PUBLIC "-//W3C//DTD SVG 1.1//EN" "http://www.w3.org/Graphics/SVG/1.1/DTD/svg11.dtd">
<svg version="1.1" id="Calque_1" xmlns="http://www.w3.org/2000/svg" xmlns:xlink="http://www.w3.org/1999/xlink" x="0px" y="0px"
	 width="841.889px" height="595.281px" viewBox="0 0 841.889 595.281" enable-background="new 0 0 841.889 595.281"
	 xml:space="preserve">
<g>
	<path fill="#0C3A44" d="M142.64,224.516h-10.824c-6.735,0-11.064,1.924-13.229,5.532l-37.043,65.427l-36.562-65.187
		c-2.165-3.849-6.494-5.532-13.229-5.532H20.927c-8.419,0-12.508,2.165-12.508,6.735v133.259c0,4.33,4.089,6.735,12.508,6.735h6.014
		c8.419,0,12.508-2.165,12.508-6.735v-86.354l0.722-0.241l30.067,53.882c1.925,2.646,4.811,3.849,8.419,3.849h6.014
		c3.608,0,6.494-1.203,8.419-3.849l30.067-53.882l0.722,0.241v86.113c0,4.33,4.089,6.735,12.508,6.735h6.014
		c8.419,0,12.508-2.165,12.508-6.735v-133.26C155.149,226.922,151.059,224.516,142.64,224.516z"/>
	<path fill="#0C3A44" d="M403.385,224.997h-98.381c-4.089,0-6.254,3.368-6.254,10.344v6.494c0,6.976,2.165,10.344,6.254,10.344
		h33.195V364.27c0,4.329,4.089,6.734,12.508,6.734h7.216c8.419,0,12.508-2.164,12.508-6.734V252.178h33.195
		c4.089,0,6.254-3.368,6.254-10.344v-6.494C409.64,228.605,407.715,224.997,403.385,224.997z"/>
	<path fill="#0C3A44" d="M517.16,317.124c-1.924-4.329-4.089-8.419-6.976-12.268c-2.887-3.607-5.532-6.013-8.179-6.976v-0.722
		c7.457-2.887,13.471-6.976,17.801-12.748c4.329-5.773,6.494-12.509,6.494-20.206c0-25.979-17.318-39.208-51.957-39.208h-40.65
		c-5.533,0-8.419,2.887-8.419,8.419V364.51c0,4.33,4.089,6.735,12.508,6.735h6.976c8.419,0,12.508-2.165,12.508-6.735v-50.754h8.179
		c6.254,0,10.824,0.962,13.47,2.887c2.646,1.924,5.292,5.051,7.697,9.621l16.357,40.651c1.202,2.887,5.051,4.33,12.026,4.33h8.419
		c8.419,0,12.508-1.443,12.508-4.09c0-0.721-0.24-2.164-0.962-3.849L517.16,317.124z M488.777,280.802
		c-3.127,3.367-6.976,5.292-11.306,5.292h-19.724v-33.676h18.281c5.532,0,9.621,1.443,12.748,4.33
		c3.127,2.886,4.57,6.734,4.57,11.546C493.587,273.105,491.904,277.434,488.777,280.802z"/>
	<path fill="#0C3A44" d="M571.281,224.516h-7.216c-8.419,0-12.508,2.405-12.508,6.976v133.259c0,4.57,4.089,6.976,12.508,6.976
		h7.216c8.42,0,12.509-2.405,12.509-6.976v-133.5C583.79,226.68,579.46,224.516,571.281,224.516z"/>
	<path fill="#0C3A44" d="M709.112,336.848c-0.481,0-2.405,0.722-5.532,2.165c-9.141,4.089-18.763,6.254-28.625,6.254
		c-23.813,0-35.6-15.635-35.6-47.146c0-31.511,12.027-47.146,36.081-47.146c10.344,0,19.003,1.684,26.219,5.052
		c2.405,1.202,3.849,1.684,4.33,1.684c2.405,0,5.292-2.405,8.659-7.457c3.367-5.051,4.811-9.141,4.811-12.027
		c0-4.089-4.811-7.697-14.191-10.343c-9.381-2.887-19.243-4.089-29.346-4.089c-46.425,0-69.517,24.775-69.517,74.086
		c0,25.738,5.532,44.5,16.838,56.768c11.064,12.027,28.384,18.281,51.716,18.281c10.344,0,20.687-1.443,31.03-4.57
		c10.343-3.127,15.395-7.457,15.395-12.989c0-2.405-1.203-6.254-3.849-10.824C714.644,339.254,711.998,336.848,709.112,336.848z"/>
	<path fill="#0C3A44" d="M799.795,252.178h25.016c4.09,0,6.254-3.368,6.254-10.344v-6.494c0-6.976-2.164-10.344-6.254-10.344H748.56
		c-5.532,0-8.419,2.887-8.419,8.419v19.003h31.992h27.662V252.178z"/>
	<path fill="#0C3A44" d="M789.451,309.668h29.587c4.089,0,6.254-3.368,6.254-10.344v-6.494c0-6.977-2.165-10.344-6.254-10.344
		h-78.897v27.182h31.992H789.451z"/>
	<path fill="#0C3A44" d="M825.052,343.584h-84.671v19.002c0,5.533,2.887,8.419,8.419,8.419h76.252c4.089,0,6.254-3.367,6.254-10.343
		v-6.494C831.306,346.951,829.141,343.584,825.052,343.584z"/>
	<path fill="#0C3A44" d="M250.643,229.087c-1.203-2.887-5.052-4.33-11.787-4.33h-10.824c-6.734,0-10.824,1.443-11.786,4.33
		l-45.702,133.74c-0.481,1.924-0.722,3.127-0.722,3.849c0,3.127,4.329,4.57,12.748,4.57h8.419c5.532,0,8.659-1.443,9.622-4.33
		l8.419-25.497l8.899-27.422c0,0,14.192-43.778,15.395-50.272h0.722l14.914,50.272l8.899,27.422l8.419,25.497
		c0.962,2.887,4.811,4.33,11.546,4.33h9.141c6.976,0,10.343-1.443,10.343-4.57c0-1.203-0.24-2.405-0.722-3.849L250.643,229.087z"/>
</g>
</svg>
