<?xml version="1.0" encoding="utf-8"?>
<!-- Generator: Adobe Illustrator 21.0.0, SVG Export Plug-In . SVG Version: 6.00 Build 0)  -->
<!DOCTYPE svg PUBLIC "-//W3C//DTD SVG 1.1//EN" "http://www.w3.org/Graphics/SVG/1.1/DTD/svg11.dtd">
<svg version="1.1" id="Calque_1" xmlns="http://www.w3.org/2000/svg" xmlns:xlink="http://www.w3.org/1999/xlink" x="0px" y="0px"
	 viewBox="0 0 350 72" style="enable-background:new 0 0 350 72;" xml:space="preserve">
<style type="text/css">
	.st0{fill:#1D1D1B;}
</style>
<g>
	<path class="st0" d="M59.3,5.6h-4.5c-2.8,0-4.6,0.8-5.5,2.3L33.9,35.1L18.7,8c-0.9-1.6-2.7-2.3-5.5-2.3H8.7c-3.5,0-5.2,0.9-5.2,2.8
		v55.4c0,1.8,1.7,2.8,5.2,2.8h2.5c3.5,0,5.2-0.9,5.2-2.8V28l0.3-0.1l12.5,22.4c0.8,1.1,2,1.6,3.5,1.6h2.5c1.5,0,2.7-0.5,3.5-1.6
		l12.5-22.4l0.3,0.1v35.8c0,1.8,1.7,2.8,5.2,2.8h2.5c3.5,0,5.2-0.9,5.2-2.8V8.4C64.5,6.6,62.8,5.6,59.3,5.6z"/>
	<path class="st0" d="M167.7,5.8h-40.9c-1.7,0-2.6,1.4-2.6,4.3v2.7c0,2.9,0.9,4.3,2.6,4.3h13.8v46.6c0,1.8,1.7,2.8,5.2,2.8h3
		c3.5,0,5.2-0.9,5.2-2.8V17.1h13.8c1.7,0,2.6-1.4,2.6-4.3v-2.7C170.3,7.3,169.5,5.8,167.7,5.8z"/>
	<path class="st0" d="M215,44.1c-0.8-1.8-1.7-3.5-2.9-5.1c-1.2-1.5-2.3-2.5-3.4-2.9v-0.3c3.1-1.2,5.6-2.9,7.4-5.3
		c1.8-2.4,2.7-5.2,2.7-8.4c0-10.8-7.2-16.3-21.6-16.3h-16.9c-2.3,0-3.5,1.2-3.5,3.5v54.5c0,1.8,1.7,2.8,5.2,2.8h2.9
		c3.5,0,5.2-0.9,5.2-2.8V42.7h3.4c2.6,0,4.5,0.4,5.6,1.2c1.1,0.8,2.2,2.1,3.2,4l6.8,16.9c0.5,1.2,2.1,1.8,5,1.8h3.5
		c3.5,0,5.2-0.6,5.2-1.7c0-0.3-0.1-0.9-0.4-1.6L215,44.1z M203.2,29c-1.3,1.4-2.9,2.2-4.7,2.2h-8.2v-14h7.6c2.3,0,4,0.6,5.3,1.8
		c1.3,1.2,1.9,2.8,1.9,4.8C205.2,25.8,204.5,27.6,203.2,29z"/>
	<path class="st0" d="M237.5,5.6h-3c-3.5,0-5.2,1-5.2,2.9v55.4c0,1.9,1.7,2.9,5.2,2.9h3c3.5,0,5.2-1,5.2-2.9V8.4
		C242.7,6.5,240.9,5.6,237.5,5.6z"/>
	<path class="st0" d="M294.8,52.3c-0.2,0-1,0.3-2.3,0.9c-3.8,1.7-7.8,2.6-11.9,2.6c-9.9,0-14.8-6.5-14.8-19.6c0-13.1,5-19.6,15-19.6
		c4.3,0,7.9,0.7,10.9,2.1c1,0.5,1.6,0.7,1.8,0.7c1,0,2.2-1,3.6-3.1c1.4-2.1,2-3.8,2-5c0-1.7-2-3.2-5.9-4.3c-3.9-1.2-8-1.7-12.2-1.7
		c-19.3,0-28.9,10.3-28.9,30.8c0,10.7,2.3,18.5,7,23.6c4.6,5,11.8,7.6,21.5,7.6c4.3,0,8.6-0.6,12.9-1.9c4.3-1.3,6.4-3.1,6.4-5.4
		c0-1-0.5-2.6-1.6-4.5C297.1,53.3,296,52.3,294.8,52.3z"/>
	<path class="st0" d="M332.5,17.1h10.4c1.7,0,2.6-1.4,2.6-4.3v-2.7c0-2.9-0.9-4.3-2.6-4.3h-31.7c-2.3,0-3.5,1.2-3.5,3.5v7.9h13.3
		H332.5z"/>
	<path class="st0" d="M328.2,41h12.3c1.7,0,2.6-1.4,2.6-4.3V34c0-2.9-0.9-4.3-2.6-4.3h-32.8V41h13.3H328.2z"/>
	<path class="st0" d="M343,55.1h-35.2v7.9c0,2.3,1.2,3.5,3.5,3.5H343c1.7,0,2.6-1.4,2.6-4.3v-2.7C345.6,56.5,344.7,55.1,343,55.1z"
		/>
	<path class="st0" d="M104.2,7.5c-0.5-1.2-2.1-1.8-4.9-1.8h-4.5c-2.8,0-4.5,0.6-4.9,1.8l-19,55.6c-0.2,0.8-0.3,1.3-0.3,1.6
		c0,1.3,1.8,1.9,5.3,1.9h3.5c2.3,0,3.6-0.6,4-1.8l3.5-10.6l3.7-11.4c0,0,5.9-18.2,6.4-20.9h0.3l6.2,20.9l3.7,11.4l3.5,10.6
		c0.4,1.2,2,1.8,4.8,1.8h3.8c2.9,0,4.3-0.6,4.3-1.9c0-0.5-0.1-1-0.3-1.6L104.2,7.5z"/>
</g>
</svg>
