<?xml version="1.0" encoding="utf-8"?>
<!-- Generator: Adobe Illustrator 16.0.0, SVG Export Plug-In . SVG Version: 6.00 Build 0)  -->
<!DOCTYPE svg PUBLIC "-//W3C//DTD SVG 1.1//EN" "http://www.w3.org/Graphics/SVG/1.1/DTD/svg11.dtd">
<svg version="1.1" id="Calque_1" xmlns="http://www.w3.org/2000/svg" xmlns:xlink="http://www.w3.org/1999/xlink" x="0px" y="0px"
	 width="841.89px" height="595.28px" viewBox="0 0 841.89 595.28" enable-background="new 0 0 841.89 595.28" xml:space="preserve">
<g>
	<defs>
		<rect id="SVGID_1_" width="841.89" height="595.28"/>
	</defs>
	<clipPath id="SVGID_2_">
		<use xlink:href="#SVGID_1_"  overflow="visible"/>
	</clipPath>
	<g clip-path="url(#SVGID_2_)">
		<defs>
			<rect id="SVGID_3_" width="841.89" height="595.28"/>
		</defs>
		<clipPath id="SVGID_4_">
			<use xlink:href="#SVGID_3_"  overflow="visible"/>
		</clipPath>
		<path clip-path="url(#SVGID_4_)" fill="#DADADA" d="M667.828,295.124c-1.604-2.778-4.755-4.098-7.736-3.515L631.957,186.61
			c0.005-0.003,0.011-0.005,0.016-0.007c3.497-2.02,4.695-6.492,2.677-9.989c-2.02-3.497-6.491-4.696-9.989-2.677
			c-0.396,0.229-0.759,0.493-1.095,0.78L548.215,97.96c2.034-2.291,2.483-5.711,0.868-8.509c-2.02-3.498-6.492-4.696-9.989-2.677
			c-1.617,0.934-2.735,2.394-3.278,4.038L428.418,63.269c0.306-1.651,0.052-3.415-0.854-4.983c-2.02-3.497-6.492-4.696-9.989-2.676
			c-2.766,1.597-4.086,4.728-3.521,7.698L309.79,90.643c-0.152-0.451-0.35-0.894-0.597-1.322c-2.019-3.498-6.492-4.696-9.989-2.676
			c-3.498,2.019-4.696,6.491-2.677,9.988c0.232,0.401,0.499,0.768,0.79,1.108l-78.22,77.123c-2.291-2.025-5.704-2.47-8.498-0.857
			c-3.498,2.019-4.696,6.491-2.676,9.988c0.933,1.618,2.394,2.736,4.039,3.279l-27.196,106.094
			c-1.651-0.306-3.414-0.052-4.982,0.854c-3.498,2.019-4.696,6.491-2.676,9.988c1.594,2.761,4.715,4.081,7.679,3.524l26.91,103.695
			c-0.457,0.153-0.906,0.354-1.339,0.604c-3.498,2.019-4.696,6.491-2.677,9.988c2.02,3.497,6.492,4.695,9.989,2.677
			c0.425-0.245,0.814-0.528,1.17-0.84l77.343,76.764c-1.981,2.289-2.406,5.666-0.807,8.435c2.02,3.498,6.492,4.696,9.99,2.677
			c1.591-0.919,2.7-2.348,3.253-3.96l106.505,28.604c-0.134,1.454,0.159,2.96,0.944,4.322c2.02,3.496,6.492,4.694,9.989,2.676
			c2.787-1.609,4.107-4.775,3.51-7.765l104.916-28.526c0.149,0.43,0.338,0.853,0.573,1.261c2.021,3.497,6.491,4.695,9.988,2.677
			c3.498-2.02,4.696-6.49,2.677-9.988c-0.238-0.413-0.513-0.79-0.812-1.139l76.356-76.099c2.29,2.004,5.685,2.438,8.466,0.833
			c3.498-2.02,4.696-6.491,2.678-9.989c-0.906-1.566-2.306-2.669-3.888-3.229l29.494-105.479c1.695,0.353,3.521,0.114,5.137-0.82
			C668.649,303.094,669.848,298.622,667.828,295.124 M586.133,428.974l5.932-10.17l28.722-0.005
			c0.021,0.299,0.059,0.598,0.116,0.895L586.133,428.974z M428.389,532.854c-0.198-0.284-0.415-0.549-0.645-0.796l26.744-26.608
			l21.545-0.065L428.389,532.854z M308.627,503.039c-0.096-0.282-0.216-0.56-0.349-0.832l25.508-14.65l10.439,5.981L308.627,503.039
			z M258.482,169.112l-6.167,10.721l-30.772,0.005c-0.02-0.296-0.057-0.592-0.114-0.886L258.482,169.112z M415.156,65.995
			c0.178,0.268,0.367,0.524,0.573,0.761L390.05,92.524l-21.252-0.011L415.156,65.995z M535.828,95.461
			c0.099,0.29,0.223,0.574,0.36,0.855l-26.756,15.448l-11.104-6.344L535.828,95.461z M404.358,505.597l9.053-0.026l6.612,24.56
			c-0.37,0.128-0.733,0.292-1.088,0.484L404.358,505.597z M307.779,501.339c-0.171-0.256-0.352-0.5-0.549-0.728l18.024-17.942
			l7.527,4.312L307.779,501.339z M438.42,92.55l-8.364-0.004l-6.431-23.697c0.281-0.098,0.559-0.219,0.833-0.354L438.42,92.55z
			 M536.688,97.183c0.164,0.244,0.338,0.478,0.525,0.696l-19.066,18.865l-7.709-4.405L536.688,97.183z M628.688,307.03l0.008-7.629
			l25.514-0.095c0.021,0.291,0.059,0.582,0.115,0.872L628.688,307.03z M510.646,486.582l7.442-4.291l17.772,17.621
			c-0.202,0.233-0.387,0.478-0.556,0.732L510.646,486.582z M220.931,416c-0.097-0.282-0.216-0.559-0.35-0.831l21.365-12.278
			l3.748,6.491L220.931,416z M213.641,292.906l-0.007,7.036l-22.908,0.085c-0.021-0.299-0.059-0.597-0.118-0.894L213.641,292.906z
			 M333.863,111.344l-7.593,4.343l-17.902-17.908c0.205-0.236,0.393-0.483,0.565-0.741L333.863,111.344z M417.998,68.5
			c0.278,0.137,0.564,0.25,0.855,0.35l-6.384,23.687l-8.442-0.005L417.998,68.5z M541.957,181.648l-0.071,21.473l-30.692,8.298
			l8.304-30.63l21.584-0.004L541.957,181.648z M621.406,182.656c0.096,0.274,0.213,0.544,0.343,0.811l-19.712,11.328l-3.446-5.97
			L621.406,182.656z M654.199,298.307l-25.503,0.095l0.008-7.789l25.617,6.784C654.264,297.698,654.22,298.001,654.199,298.307
			 M627.697,298.405l-30.533,0.114l-0.008-0.028l4.062-15.157l26.487,7.015L627.697,298.405z M596.645,296.54l-4.065-15.493
			l7.673,2.032L596.645,296.54z M596.122,298.49l-0.009,0.032l-35.691,0.133L573.524,276l17.943,4.752L596.122,298.49z
			 M536.561,499.199l-17.575-17.427l6.408-3.693l11.909,20.555C537.042,498.81,536.791,498.996,536.561,499.199 M518.249,481.043
			l-19.65-19.483l10.927-10.871l15.367,26.523L518.249,481.043z M497.889,460.855l-5.798-5.748l15.819-4.222L497.889,460.855z
			 M491.269,454.292l-13.261-13.147l12.912-22.325l0.143,0.001l17.826,30.769L491.269,454.292z M422.884,529.748l-0.06-24.206
			l7.604-0.022l-6.603,24.358C423.515,529.816,423.202,529.768,422.884,529.748 M422.821,504.542l-0.075-30.62l15.165,3.999
			l-7.21,26.598L422.821,504.542z M424.115,473.25l16.236-4.333l-2.18,8.04L424.115,473.25z M422.744,472.582l-0.088-35.029
			l22.69,12.941l-4.692,17.307L422.744,472.582z M220.082,414.301c-0.166-0.248-0.342-0.486-0.533-0.708l18.187-17.995l3.71,6.426
			L220.082,414.301z M238.472,394.871l19.73-19.523l10.887,10.789l-26.775,15.388L238.472,394.871z M258.913,374.645l5.607-5.548
			l4.074,15.144L258.913,374.645z M265.338,368.289l13.114-12.976l22.221,12.673L270,385.615L265.338,368.289z M190.736,301.026
			l22.897-0.085l-0.007,7.089l-23.012-6.094C190.672,301.636,190.716,301.333,190.736,301.026 M214.632,300.938l30.958-0.113
			l-3.99,14.613l-26.975-7.144L214.632,300.938z M246.388,301.699l4.347,16.157l-8.169-2.163L246.388,301.699z M247.186,300.817
			l34.665-0.129l-12.801,22.019l-17.201-4.556L247.186,300.817z M307.663,98.488l17.708,17.714l-6.367,3.642l-12.058-20.812
			C307.198,98.862,307.438,98.683,307.663,98.488 M326.104,116.935l19.84,19.847l-10.831,10.868l-15.608-26.941L326.104,116.935z
			 M346.652,137.489l5.667,5.67l-15.391,4.087L346.652,137.489z M353.137,143.976l12.534,12.539l-12.733,21.902l-17.266-29.803
			L353.137,143.976z M378.836,137.152l18.714,10.739l-8.301,30.796l-22.327-22.334l11.027-18.965L378.836,137.152z M420.75,69.238
			l0.058,23.303l-7.303-0.004l6.314-23.427C420.126,69.17,420.437,69.217,420.75,69.238 M420.81,93.54l0.076,30.576l-14.821-3.975
			l7.17-26.605L420.81,93.54z M420.511,125.05l-16.985,4.511l2.279-8.456L420.511,125.05z M420.89,125.984l0.084,34.196
			l-22.258-12.773l4.509-16.732L420.89,125.984z M541.569,298.725l-31.655,0.117l30.578-30.439l1.171,2.017L541.569,298.725z
			 M542.658,272.133l15.398,26.531l-15.487,0.057L542.658,272.133z M490.344,417.819l-35.105,0.007l0.006-0.021l26.435-15.181
			l8.734,15.076L490.344,417.819z M301.639,332.372l0.053,0.013l-0.097,34.976l-22.406-12.777L301.639,332.372z M278.287,354.068
			l-19.761-11.27l11.006-18.93l30.984,8.205L278.287,354.068z M332.928,214.825l1.918-1.107l11.271,41.869l-27.645-15.897
			L332.928,214.825z M317.604,239.191l-13.468-7.744l27.049-15.617L317.604,239.191z M421.024,180.805l0.073,29.741l-29.554-29.564
			l0.299-0.172L421.024,180.805z M393.577,179.809l27.407-15.823l0.039,15.819L393.577,179.809z M506.998,210.698l0.931,1.604
			l-40.723,11.01l15.519-26.543L506.998,210.698z M483.229,195.905l7.618-13.031l15.147,26.096L483.229,195.905z M539.973,267.508
			l-31.04,30.901l-16.772-16.778l6.875-25.358l40.668,10.771L539.973,267.508z M509.285,214.638l-10.745,39.636l-0.993,0.571
			l-25.261-6.69l-6.215-22.901l0.415-0.712l41.962-11.345L509.285,214.638z M509.448,212.927l0.324-0.088l-0.12,0.441
			L509.448,212.927z M357.478,300.409l0.703-0.003l8.051,29.904l-0.006,0.003l-13.264-13.15L357.478,300.409z M352.145,316.352
			l-16.001-15.864l20.297-0.075L352.145,316.352z M421.16,235.65v0.112l-30.106,8.14l12.935-12.799L421.16,235.65z M404.813,230.287
			l16.293-16.121l0.052,20.449L404.813,230.287z M453.286,244.158l0.362,0.363l-31.301,53.541l-0.034,0.019l-0.151-61.554
			l1.142-0.309L453.286,244.158z M425.236,235.696l15.423-4.17l11.221,11.225L425.236,235.696z M485.732,301.518l-7.421,27.373
			l-1.727,1.719l-52.949-30.446l61.666-0.229L485.732,301.518z M477.788,330.824l-0.112,0.412l-0.192-0.11L477.788,330.824z
			 M420.68,300.174l0.434-0.002l-31.296,53.532l-22.169-21.981l-0.25-0.929L420.68,300.174z M367.129,329.795l-7.913-29.394
			l59.443-0.221L367.129,329.795z M366.752,332.243l4.736,17.59l-25.479-6.747l20.055-11.525L366.752,332.243z M368.165,333.644
			l21.068,20.89l-16.631-4.405L368.165,333.644z M388.796,355.452l-10.107,17.287l-5.786-21.496L388.796,355.452z M389.799,355.717
			l0.858,0.227l11.677,11.578l-23.035,6.155L389.799,355.717z M392.594,356.457l25.688,6.802l-14.83,3.964L392.594,356.457z
			 M420.228,363.774l1.248,0.33l0.052,21.04l-17.253-17.105L420.228,363.774z M420.226,362.74l-29.056-7.695l-0.619-0.614
			l30.771-52.636l0.149,60.612L420.226,362.74z M422.319,300.559l0.341,0.196l30.694,52.98l-0.207,0.206l-30.677,8.198
			L422.319,300.559z M424.392,301.75l51.459,29.591l-21.764,21.665L424.392,301.75z M422.895,299.166l-0.018-0.03l0.199-0.339
			l53.563-30.783l8.392,30.921L422.895,299.166z M424.092,297.059l30.288-51.807l21.841,21.849L424.092,297.059z M475.929,265.395
			l-20.721-20.728l16.265,4.308L475.929,265.395z M472.589,249.27l23.726,6.283l-19.05,10.948L472.589,249.27z M455.311,243.66
			l10.053-17.196l5.807,21.396L455.311,243.66z M421.309,296.43l-29.889-51.591l29.743-8.042L421.309,296.43z M390.423,243.118
			l-10.681-18.436l23.125,6.124L390.423,243.118z M390.422,245.109l30.892,53.323l0.001,0.223l-0.15,0.086l-54.096-31.107
			l22.545-22.306L390.422,245.109z M366.33,268.364l53.585,30.812l-60.968,0.227l-0.599-2.224l7.688-28.524L366.33,268.364z
			 M357.913,299.407h-0.165l0.082-0.307L357.913,299.407z M365.327,330.831l-18.99,10.913l6.326-23.471L365.327,330.831z
			 M371.787,350.946l6.193,23.006l-0.054,0.092l-43.422,11.604l11.213-41.605L371.787,350.946z M403.156,368.337l17.801,17.649
			l-30.522,30.386l-11.209-41.641L403.156,368.337z M422.477,364.371l15.952,4.223l-15.902,15.831L422.477,364.371z
			 M422.474,363.335v-0.161l29.253-7.817l-12.478,12.42L422.474,363.335z M453.664,354.839l0.287-0.077l11.569,19.972l-25.151-6.659
			L453.664,354.839z M454.951,354.496l17.702-4.732l-6.518,24.039L454.951,354.496z M455.085,353.424l21.664-21.566l0.656,0.377
			l-4.449,16.413L455.085,353.424z M478.302,332.75l17.179,9.878l-21.406,5.722L478.302,332.75z M478.572,331.752l0.635-2.341
			l11.097-11.047l6.475,23.856L478.572,331.752z M479.731,327.478l6.52-24.049l3.752,13.824L479.731,327.478z M486.769,301.519
			l0.433-1.592l20.282-0.075l-16.665,16.589L486.769,301.519z M487.472,298.926l4.387-16.183l16.102,16.107L487.472,298.926z
			 M486.434,298.93l-0.367,0.001l-8.188-30.173l13.165,13.17L486.434,298.93z M477.852,267.318l19.837-11.401l0.379,0.101
			l-6.723,24.798L477.852,267.318z M464.996,225.111l-10.688,18.284l-0.506-0.135l-12.031-12.035l23.184-6.268L464.996,225.111z
			 M440.955,230.41l-18.033-18.039l30.442-30.121l11.328,41.742L440.955,230.41z M439.843,230.71l-16.542,4.473l-1.142-0.303
			l-0.055-21.701l0.106-0.105L439.843,230.71z M421.104,212.762l-17.412,17.228l-24.658-6.53l-0.557-0.961l10.843-40.232
			l1.328-0.767l30.454,30.463L421.104,212.762z M378.378,224.321l11.311,19.523l-0.593,0.588l-17.83,4.82l6.746-25.028
			L378.378,224.321z M387.655,245.857l-21.101,20.878l4.411-16.365L387.655,245.857z M365.516,266.742l-17.624-10.134l21.956-5.936
			L365.516,266.742z M365.247,267.741l-0.106,0.392l-11.538,11.416l-5.894-21.893L365.247,267.741z M364.624,270.052l-6.793,25.203
			l-3.929-14.594L364.624,270.052z M357.312,297.178l-0.602,2.233l-21.572,0.08l-0.134-0.134l18.079-17.888L357.312,297.178z
			 M334.729,300.493l17.117,16.97l-6.735,24.986l-0.476,0.272l-41.601-11.016l-0.265-0.454l31.086-30.756L334.729,300.493z
			 M303.746,332.929l39.656,10.501l-25.124,14.44L303.746,332.929z M317.411,358.368l-14.815,8.514l0.094-33.779L317.411,358.368z
			 M344.743,343.813l-10.96,40.664l-15.001-25.744L344.743,343.813z M377.208,375.271l-15.438,26.408l-26.604-15.173
			L377.208,375.271z M378.345,375.308l11.274,41.877l-0.241,0.238l-26.739-15.249L378.345,375.308z M390.735,417.484l30.796-30.658
			l0.076,31.006l-30.779,0.004L390.735,417.484z M422.534,387.55l30.535,30.276l-30.461,0.006L422.534,387.55z M451.456,418.827
			l-28.805,16.543l-0.041-16.538L451.456,418.827z M454.017,417.356l-31.486-31.218l-0.001-0.306l17.019-16.942l26.05,6.899
			l-11.211,41.354L454.017,417.356z M466.475,376.38l14.703,25.378l-25.563,14.681L466.475,376.38z M467.593,376.317l39.617,10.49
			l-25.166,14.453L467.593,376.317z M508.442,386.1l-41.558-11.005l-0.043-0.073l6.929-25.557l22.939-6.13l0.439,0.253
			l11.505,42.391L508.442,386.1z M491.12,317.552l17.786-17.706h0.05l30.911,30.921L497.76,342.02L491.12,317.552z M499.296,255.309
			l0.101-0.373l24.955-14.341l14.643,25.226L499.296,255.309z M499.768,253.569l10.225-37.715l13.856,23.875L499.768,253.569z
			 M510.359,214.498l0.438-1.619l29.908,17.162l-15.99,9.19L510.359,214.498z M508.928,212.032l-0.196-0.339l0.464,0.266
			L508.928,212.032z M465.83,223.684l-0.171,0.047l-11.479-42.289l0.649-0.643h0.066l26.961,15.472L465.83,223.684z M453.063,181.14
			l-30.85,30.523l-0.113-0.114l-0.076-30.744l30.946-0.005L453.063,181.14z M389.841,180.811l-0.152,0.087l0.024-0.087H389.841z
			 M388.462,181.606l-25.235,14.57l-8.899-15.36l34.349-0.005L388.462,181.606z M388.094,182.975l-10.324,38.303l-14.042-24.236
			L388.094,182.975z M377.403,222.638l-0.098,0.364l-40.132-10.628l25.69-14.832L377.403,222.638z M377.045,223.968l-6.896,25.587
			l-22.95,6.204L335.742,213.2l0.202-0.117L377.045,223.968z M334.572,212.72l-0.633,0.365l0.269-0.461L334.572,212.72z
			 M352.785,280.358l-18.491,18.296l-30.406-30.148l42.606-11.52L352.785,280.358z M333.584,299.356l-0.143,0.142l-30.657,0.112
			l0.085-30.707L333.584,299.356z M332.427,300.501l-29.728,29.414l0.082-29.305L332.427,300.501z M301.701,329.418l-16.748-28.741
			l16.828-0.062L301.701,329.418z M317.915,359.231l15.217,26.115l-30.446-17.363L317.915,359.231z M361.265,402.542l-8.492,14.525
			l-16.903-29.009L361.265,402.542z M362.134,403.038l25.95,14.798l-34.606,0.006L362.134,403.038z M421.61,418.832l0.042,16.998
			l-29.797-16.994L421.61,418.832z M453.465,418.827h0.466l-8.313,30.67l-22.858-13.037L453.465,418.827z M454.779,419.521
			l21.978,21.791l-11.283,19.509l-18.96-10.812L454.779,419.521z M455.498,418.827l34.267-0.007l-12.49,21.597L455.498,418.827z
			 M482.545,402.126l25.27-14.511l-16.824,29.088L482.545,402.126z M509.394,384.885l-11.017-40.591l25.884,14.884L509.394,384.885z
			 M525.128,359.677l14.653,8.426l-29.238,16.791L525.128,359.677z M498.079,342.969l42.058-11.239l-15.375,26.583L498.079,342.969z
			 M540.908,330.396l-30.545-30.555l31.203-0.116l-0.099,29.703L540.908,330.396z M541.225,267.673l0.18-0.178l0.269,0.07
			l-0.003,0.875L541.225,267.673z M542.677,266.228l22.338-22.237l19.423,11.146l-11.396,19.701l-30.367-8.042L542.677,266.228z
			 M542.682,264.812l0.111-33.573l21.322,12.236L542.682,264.812z M541.679,265.811l-0.573,0.57l-0.745-0.198l-15.143-26.086
			l16.493-9.479l0.084,0.048L541.679,265.811z M541.71,229.465l-29.922-17.171l30.094-8.136l-0.083,25.256L541.71,229.465z
			 M507.728,209.964l-16.3-28.083l0.637-1.088l26.396-0.004l-8.289,30.578L507.728,209.964z M490.851,180.888l-0.055-0.095h0.109
			L490.851,180.888z M490.271,181.879l-7.909,13.529l-25.457-14.609l32.736-0.006L490.271,181.879z M452.699,179.799l-30.677,0.005
			l-0.041-16.395l1.303-0.751l29.331,16.833L452.699,179.799z M421.979,162.255v-0.345l0.301,0.172L421.979,162.255z
			 M420.98,162.832l-29.406,16.978h-1.204l-0.306-0.307l8.382-31.097l22.53,12.929L420.98,162.832z M397.819,146.893l-17.61-10.106
			l21.901-5.816L397.819,146.893z M366.191,155.622l-11.938-11.942l22.328-5.93L366.191,155.622z M366.403,157.247l22.546,22.553
			l-0.002,0.01l-35.199,0.006l-0.233-0.403L366.403,157.247z M353.173,180.816l9.189,15.86l-26.561,15.335l-0.408-0.108
			l-0.243-0.901l17.55-30.186H353.173z M334.784,209.643l-7.759-28.822l24.518-0.004L334.784,209.643z M334.076,210.86l-0.35,0.601
			l-30.674-8.123l0.062-22.162l0.35-0.351l22.526-0.004L334.076,210.86z M333.205,212.358l-1.007,1.733l-29.064,16.78l-0.159-0.091
			l0.074-26.408L333.205,212.358z M303.136,232.025l13.966,8.031l-14.22,24.46l0.09-32.396L303.136,232.025z M317.969,240.555
			l27.334,15.717l-42.236,11.42l-0.194-0.193l0.003-0.984L317.969,240.555z M301.869,269.051l-0.085,30.564l-17.412,0.063
			l-0.389-0.667l17.331-29.81L301.869,269.051z M283.799,300.682l17.716,30.404l-0.174,0.172l-31.288-8.286l12.958-22.287
			L283.799,300.682z M268.529,323.604l-10.4,17.889l-5.98-22.227L268.529,323.604z M277.549,354.799l-12.51,12.377l-6.201-23.048
			L277.549,354.799z M332.556,386.169l-30.037,8.026l0.071-25.115L332.556,386.169z M333.087,387.062l-8.298,30.785l-22.278,0.004
			l-0.058-0.057l0.063-22.562L333.087,387.062z M334.122,387.062l0.015,0.008l17.93,30.772l-26.241,0.004L334.122,387.062z
			 M387.958,418.837l-21.616,21.518l-12.535-21.512L387.958,418.837z M389.375,418.837h0.464l0.265,0.152l8.177,30.377
			l-19.997,11.482l-11.421-19.6L389.375,418.837z M391.327,419.686l29.419,16.777l-21.568,12.387L391.327,419.686z M446.244,451.005
			l18.28,10.425l-22.753,6.073L446.244,451.005z M477.492,442.04l12.658,12.551l-23.556,6.286L477.492,442.04z M491.568,417.701
			l17.488-30.238l8.237,30.353l-25.656,0.004L491.568,417.701z M510.125,387.581l31.124,8.24l-0.073,21.967l-0.024,0.022
			l-22.821,0.004L510.125,387.581z M509.822,386.465l-0.001-0.003l30.964-17.782l0.552,0.318l-0.085,25.791L509.822,386.465z
			 M540.785,367.526l-15.156-8.716l15.493-26.788l0.337,0.337l-0.116,34.847L540.785,367.526z M542.455,333.355l21.092,21.1
			l-21.202,12.175L542.455,333.355z M542.46,331.948l0.002-0.841l29.805-7.965l11.45,19.729l-19.272,11.066L542.46,331.948z
			 M542.466,330.073l0.001-0.374l16.772-28.999l12.507,21.548L542.466,330.073z M542.474,327.689l0.093-27.969l16.07-0.059
			l0.023,0.042L542.474,327.689z M559.21,298.66l-16.546-28.507l0.008-2.323l29.852,7.905l-13.259,22.925H559.21z M574.044,275.103
			l10.967-18.961l6.166,23.499L574.044,275.103z M565.749,243.26l12.593-12.535l6.104,23.264L565.749,243.26z M564.851,242.744
			l-22.055-12.656l0.001-0.094l30.451-17.5l0.418,0.412l4.382,16.699L564.851,242.744z M575.061,214.28l9.236,9.105l-5.43,5.405
			L575.061,214.28z M574.563,212.385l-0.147-0.562l27.254-15.663l3.641,6.306l-20.305,20.213L574.563,212.385z M602.538,195.662
			l19.71-11.328c0.17,0.255,0.351,0.5,0.547,0.727l-16.751,16.674L602.538,195.662z M601.169,195.294l-27.017,15.526l-3.77-14.368
			l27.208-7.357L601.169,195.294z M573.169,211.01l-12.19-12.016l8.438-2.281L573.169,211.01z M572.509,211.765l-29.708,17.073
			l0.082-24.951l16.978-4.591L572.509,211.765z M542.887,202.85l0.066-20.22l16.083,15.854L542.887,202.85z M519.769,179.788
			l4.281-15.791l16.017,15.787L519.769,179.788z M518.732,179.788l-26.083,0.004l17.338-29.657l13.244,13.055L518.732,179.788z
			 M510.509,149.244l0.027-0.047l15.372,4.122l-2.375,8.763L510.509,149.244z M511.06,148.302l15.101-25.828l7.021,4.012
			l-7.013,25.869L511.06,148.302z M526.664,121.61L539.5,99.655c0.278,0.138,0.566,0.254,0.859,0.356l-6.907,25.478L526.664,121.61z
			 M538.64,99.146l-12.844,21.968l-6.746-3.855l18.869-18.669C538.147,98.792,538.39,98.976,538.64,99.146 M525.291,121.978
			l-15.233,26.056l-1.065-0.286l-10.398-10.249l19.718-19.51L525.291,121.978z M507.034,147.222l-14.372-3.854l5.221-5.165
			L507.034,147.222z M508.475,148.644l0.778,0.767l-17.763,30.381l-1.274,0.001l-12.538-21.6l14.162-14.011L508.475,148.644z
			 M489.06,179.793l-33.218,0.006l21.102-20.879L489.06,179.793z M454.691,179.529l-1.22-0.7l-7.883-29.049l19.512-11.265
			l11.324,19.51L454.691,179.529z M452.245,178.125l-27.96-16.045l20.407-11.783L452.245,178.125z M423.28,161.504l-1.305-0.749
			l-0.087-35.036l0.561-0.149l16.753,4.493l5.22,19.235L423.28,161.504z M424.388,125.056l12.55-3.334l1.961,7.225L424.388,125.056z
			 M422.449,124.536l-0.563-0.151l-0.076-30.844l7.481,0.003l7.385,27.213L422.449,124.536z M421.808,92.541l-0.057-23.312
			c0.303-0.021,0.606-0.06,0.909-0.12l6.359,23.436L421.808,92.541z M412.2,93.536l-7.102,26.346l-14.682-3.939l13.03-22.412
			L412.2,93.536z M404.839,120.847l-2.429,9.01l-23.434,6.223l-0.2-0.115l11.119-19.127L404.839,120.847z M377.292,136.527
			l-23.856,6.335l-6.079-6.081l11.218-11.256l18.831,10.807L377.292,136.527z M346.65,136.074l-19.647-19.653l7.866-4.5
			l22.807,13.088L346.65,136.074z M305.239,99.889c0.285-0.098,0.565-0.221,0.842-0.357l12.055,20.809l-6.405,3.664L305.239,99.889z
			 M318.638,121.206l15.513,26.777l-14.9,3.957l-7.252-26.937L318.638,121.206z M333.604,149.163l-11.89,11.931l-2.204-8.188
			L333.604,149.163z M334.902,149.279l17.458,30.133l-0.235,0.404l-25.369,0.004l-4.741-17.61L334.902,149.279z M325.721,179.821
			l-21.259,0.003l16.738-16.796L325.721,179.821z M302.053,203.074l-16.426-4.35l16.485-16.542L302.053,203.074z M302.05,204.107
			l-0.073,26.099l-30.338-17.446l13.172-13.218L302.05,204.107z M270.84,212.144l4.152-15.203l8.702,2.305L270.84,212.144z
			 M269.908,211.765l-26.157-15.041l4.022-6.991l26.252,6.953L269.908,211.765z M242.884,196.226l-22.055-12.683
			c0.135-0.277,0.245-0.564,0.343-0.855l25.6,6.78L242.884,196.226z M220.324,184.406l22.062,12.686l-3.823,6.645l-18.78-18.62
			C219.979,184.89,220.16,184.653,220.324,184.406 M243.252,197.59l26.384,15.172l-0.223,0.814l-10.4,10.437l-19.716-19.548
			L243.252,197.59z M268.88,215.528l-3.926,14.376l-5.231-5.187L268.88,215.528z M270.307,214.096l0.601-0.603l31.066,17.864v0.184
			l-22.353,12.905l-13.851-13.734L270.307,214.096z M301.971,232.698l-0.094,33.546l-0.099,0.17l-21.42-21.238L301.971,232.698z
			 M301.259,267.307l-0.603,1.036l-29.842,8.069l-11.216-19.25l19.863-11.468L301.259,267.307z M299.942,269.573l-16.538,28.445
			l-12.068-20.711L299.942,269.573z M282.826,299.012l-0.392,0.675l-35.517,0.132l-0.008-0.029l4.681-17.143l18.746-5.069
			L282.826,299.012z M246.395,297.877l-3.468-12.889l7.544-2.04L246.395,297.877z M245.873,299.788l-0.009,0.035l-31.23,0.114
			l0.007-7.302l27.321-7.387L245.873,299.788z M190.357,302.902l23.268,6.161l-0.008,8.124l-23.593-13.454
			C190.154,303.464,190.262,303.185,190.357,302.902 M214.624,309.329l26.712,7.073l-3.92,14.357l-22.8-13.003L214.624,309.329z
			 M242.303,316.659l8.732,2.312l6.214,23.101l-18.936-10.8L242.303,316.659z M264.221,367.985l-6.019,5.955L246.92,362.76
			l10.867-18.69L264.221,367.985z M257.492,374.644l-19.538,19.331l-4.574-7.924l13.021-22.397L257.492,374.644z M237.219,394.703
			l-18.374,18.179c-0.234-0.205-0.481-0.392-0.736-0.565l14.691-25.269L237.219,394.703z M242.813,402.392l26.557-15.263
			l3.998,14.857l-26.673,7.129L242.813,402.392z M270.521,387.557l12.072,11.964l-8.259,2.207L270.521,387.557z M270.725,386.352
			l30.866-17.739l-0.072,25.851l-17.806,4.759L270.725,386.352z M301.516,395.499l-0.059,21.307l-16.922-16.768L301.516,395.499z
			 M324.519,418.848l-4.427,16.427l-16.572-16.423L324.519,418.848z M325.556,418.848l26.179-0.005l-17.69,30.259l-13.135-13.017
			L325.556,418.848z M332.657,449.133l-14.251-3.757l2.205-8.181L332.657,449.133z M333.32,450.341l-15.677,26.816l-6.759-3.872
			l7.262-26.945L333.32,450.341z M317.139,478.02l-12.18,20.833c-0.282-0.14-0.573-0.256-0.87-0.357l6.526-24.212L317.139,478.02z
			 M305.819,499.362l12.187-20.846l6.348,3.637l-17.831,17.751C306.299,499.708,306.062,499.527,305.819,499.362 M318.511,477.653
			l15.746-26.934l10.862,10.764l-20.03,19.938L318.511,477.653z M336.012,451.052l15.484,4.082l-5.669,5.644L336.012,451.052z
			 M334.847,449.711l17.924-30.66l12.839,22.033l-13.294,13.233L334.847,449.711z M366.13,441.978l11.004,18.884l-23.697-6.247
			L366.13,441.978z M398.55,450.364l4.678,17.379l-23.944-6.315L398.55,450.364z M399.447,449.849l22.208-12.755l0.088,35.53
			l-17.4-4.587L399.447,449.849z M420.218,473.255l-13.5,3.604l-2.076-7.711L420.218,473.255z M421.746,473.883l0.075,30.662
			l-7.645,0.022l-7.199-26.742L421.746,473.883z M421.824,505.545l0.06,24.211c-0.299,0.021-0.598,0.059-0.894,0.118l-6.544-24.308
			L421.824,505.545z M424.791,530.139l6.675-24.622l8.17-0.023l-14.364,24.834C425.113,530.259,424.954,530.195,424.791,530.139
			 M431.737,504.516l7.141-26.34l14.366,3.788l-13.029,22.527L431.737,504.516z M439.14,477.211l2.329-8.592l23.053-6.153
			l-10.759,18.602L439.14,477.211z M490.973,455.407l6.207,6.153l-11.079,11.023l-18.965-10.816L490.973,455.407z M497.89,462.265
			l19.462,19.296l-7.713,4.446l-22.637-12.909L497.89,462.265z M538.996,497.783c-0.28,0.097-0.556,0.217-0.828,0.351L526.26,477.58
			l6.271-3.617L538.996,497.783z M525.758,476.713l-15.349-26.494l14.62-3.902l7.231,26.647L525.758,476.713z M511.268,448.955
			l11.399-11.341l2.1,7.737L511.268,448.955z M509.739,449.064l-17.522-30.245l25.349-0.004l4.8,17.688L509.739,449.064z
			 M518.602,418.815l21.544-0.004l-16.964,16.879L518.602,418.815z M542.248,396.086l16.379,4.338l-16.448,16.365L542.248,396.086z
			 M542.251,395.053l0.084-25.481l29.977,17.236l-12.863,12.799L542.251,395.053z M571.995,388.534l-3.602,13.441l-7.825-2.072
			L571.995,388.534z M573.334,387.396l26.878,15.455l-3.814,6.539l-27.038-7.159L573.334,387.396z M601.079,403.35l20.422,11.744
			c-0.134,0.277-0.245,0.564-0.343,0.854l-23.758-6.291L601.079,403.35z M622.006,414.23l-20.424-11.744l3.678-6.305l17.308,17.313
			C622.363,413.729,622.177,413.975,622.006,414.23 M600.716,401.989l-26.771-15.396l10.895-10.84l19.689,19.697L600.716,401.989z
			 M573.921,385.208l4.306-16.069l5.906,5.908L573.921,385.208z M572.706,385.882l-30.367-17.462l0.002-0.634l21.938-12.6
			l13.131,13.137L572.706,385.882z M565.177,354.672l18.782-10.787l-6.25,23.323L565.177,354.672z M573.267,322.876l17.58-4.698
			l-6.413,23.937L573.267,322.876z M572.747,321.979l-12.931-22.276l0.025-0.045l36.003-0.135l-4.699,17.539L572.747,321.979z
			 M596.634,300.44l3.717,14.162l-8.091,2.162L596.634,300.44z M597.426,299.518l30.271-0.111l-0.008,7.891l-26.372,7.048
			L597.426,299.518z M654.578,296.431l-25.873-6.852l0.009-9.034l26.205,15.037C654.786,295.858,654.677,296.143,654.578,296.431
			 M627.706,289.315l-26.229-6.947l4.054-15.127l22.186,12.731L627.706,289.315z M600.511,282.112l-8.224-2.177l-6.269-23.891
			l18.614,10.682L600.511,282.112z M579.161,229.908l5.848-5.821l11.073,10.915l-10.721,18.536L579.161,229.908z M585.718,223.381
			l20.11-20.019l4.273,7.402L596.6,234.107L585.718,223.381z M606.562,202.631l16.94-16.863c0.233,0.204,0.479,0.39,0.732,0.561
			l-13.555,23.435L606.562,202.631z M621.148,181.69l-23.075,6.239l-4.13-7.153l27.085-0.005
			C621.049,181.078,621.088,181.385,621.148,181.69 M597.073,188.199l-26.944,7.285l-3.858-14.703l26.518-0.005L597.073,188.199z
			 M569.163,195.746l-9.009,2.435l-17.196-16.951l0.001-0.445l22.278-0.004L569.163,195.746z M541.492,179.784l-17.142-16.896
			l2.523-9.309l15.162,4.066l-0.073,22.139H541.492z M527.136,152.614l6.943-25.615l8.043,4.596l-0.083,25.017L527.136,152.614z
			 M534.35,126.002l6.977-25.731c0.296,0.06,0.596,0.107,0.899,0.129l-0.1,30.045L534.35,126.002z M517.41,117.474l-19.529,19.322
			l-11.009-10.851l22.563-13.027L517.41,117.474z M497.17,137.5l-5.627,5.567l-23.439-6.286l17.87-10.318L497.17,137.5z
			 M490.72,143.881l-13.56,13.418l-11.194-19.284l0.914-0.528L490.72,143.881z M465.464,137.149l-0.029-0.049l0.079,0.021
			L465.464,137.149z M464.598,137.649l-19.28,11.132l-4.998-18.418l23.746,6.369L464.598,137.649z M440.016,129.247l-2.111-7.781
			l14.989-3.981l10.461,18.022L440.016,129.247z M437.643,120.501l-7.315-26.956l8.674,0.005l13.372,23.039L437.643,120.501z
			 M417.137,67.992L402.87,92.531l-11.409-0.006l24.98-25.066C416.663,67.652,416.896,67.829,417.137,67.992 M402.29,93.53
			l-12.875,22.145l-16.59-4.449l17.641-17.702L402.29,93.53z M388.895,116.57l-10.986,18.897l-18.603-10.676l12.706-12.75
			L388.895,116.57z M358.407,124.276l-22.532-12.93l10.707-6.125l24.315,6.522L358.407,124.276z M334.869,110.769l-25.433-14.595
			c0.13-0.268,0.238-0.545,0.334-0.826l35.44,9.505L334.869,110.769z M304.273,100.146l6.56,24.372l-7.573,4.332l0.08-28.583
			C303.652,100.247,303.963,100.208,304.273,100.146 M311.102,125.517l7.183,26.68l-15.101,4.01l0.073-26.203L311.102,125.517z
			 M318.544,153.163l2.356,8.749l-17.782,17.843l0.063-22.513L318.544,153.163z M284.51,198.427l-9.255-2.45l4.136-15.148
			l22.661-0.004L284.51,198.427z M274.288,195.721l-25.999-6.886l4.604-8.002l25.461-0.004L274.288,195.721z M247.288,188.57
			l-25.859-6.848c0.057-0.291,0.101-0.586,0.122-0.883l30.188-0.006L247.288,188.57z M219.083,185.831l18.964,18.802l-4.5,7.822
			l-15.191-26.071C218.611,186.211,218.857,186.029,219.083,185.831 M238.782,205.361l19.525,19.36l-11.114,11.152l-13.065-22.422
			L238.782,205.361z M259.017,225.425l5.635,5.587l-6.474,23.713l-10.464-17.957L259.017,225.425z M265.468,231.82l13.256,13.144
			l-19.63,11.333l-0.211-0.361L265.468,231.82z M258.732,257.662l11.082,19.02l-17.919,4.845l6.457-23.646L258.732,257.662z
			 M250.777,281.83l-8.11,2.192l-3.978-14.788l18.433-10.642L250.777,281.83z M241.702,284.283l-27.06,7.317l0.008-8.488
			l23.142-13.361L241.702,284.283z M213.642,291.87l-23.293,6.298c-0.096-0.279-0.215-0.553-0.348-0.824l23.65-13.654
			L213.642,291.87z M189.524,304.599l24.092,13.739l-0.012,11.406l-24.634-24.413C189.171,305.097,189.354,304.853,189.524,304.599
			 M214.614,318.908l22.53,12.848l-4.581,16.777l-17.961-17.801L214.614,318.908z M238.041,332.268l19.113,10.9l-10.968,18.866
			l-12.807-12.693L238.041,332.268z M245.667,362.926l-12.863,22.127l-6.23-10.79l6.503-23.813L245.667,362.926z M232.223,386.05
			l-14.976,25.759c-0.269-0.133-0.548-0.244-0.831-0.343l9.787-35.843L232.223,386.05z M221.185,416.967l25.027-6.688l4.376,7.581
			l-29.286,0.006C221.282,417.564,221.244,417.265,221.185,416.967 M247.213,410.011l26.415-7.059l4.01,14.902l-25.894,0.005
			L247.213,410.011z M274.595,402.693l8.822-2.357l17.674,17.515l-22.417,0.004L274.595,402.693z M319.793,436.385l-2.355,8.736
			l-15.049-3.969l0.061-21.953L319.793,436.385z M317.179,446.085l-7.193,26.686l-7.674-4.396l0.074-26.189L317.179,446.085z
			 M309.717,473.769l-6.594,24.466c-0.295-0.059-0.593-0.105-0.894-0.127l0.08-28.583L309.717,473.769z M325.989,481.938
			l19.839-19.751l11.053,10.953l-23.096,13.265L325.989,481.938z M346.537,461.481l6.08-6.052l24.057,6.344l-18.894,10.851
			L346.537,461.481z M403.528,468.854l2.224,8.263l-15.569,4.153l-10.971-18.828L403.528,468.854z M406.012,478.083l7.13,26.487
			l-9.366,0.028l-13.071-22.432L406.012,478.083z M426.167,530.776l14.626-25.287l12.273-0.036l-26.055,25.922
			C426.743,531.157,426.462,530.955,426.167,530.776 M441.372,504.486l12.874-22.258l17.52,4.619l-17.691,17.603L441.372,504.486z
			 M454.765,481.332l11.076-19.151l19.524,11.135l-12.779,12.716L454.765,481.332z M486.267,473.83l22.368,12.756l-10.651,6.142
			l-24.276-6.4L486.267,473.83z M509.643,487.161l25.161,14.349c-0.131,0.272-0.238,0.553-0.335,0.838l-35.111-9.258
			L509.643,487.161z M539.962,497.522l-6.534-24.076l7.579-4.369l-0.094,28.322C540.595,497.42,540.277,497.46,539.962,497.522
			 M533.156,472.448l-7.161-26.39l15.101-4.03l-0.085,25.891L533.156,472.448z M525.733,445.094l-2.251-8.292l17.689-17.599
			l-0.072,21.79L525.733,445.094z M559.747,400.72l8.388,2.222l-3.983,14.866l-21.582,0.003L559.747,400.72z M569.101,403.198
			l26.774,7.09l-4.385,7.515l-26.305,0.004L569.101,403.198z M596.877,410.553l24.023,6.362c-0.056,0.292-0.101,0.585-0.121,0.883
			l-28.131,0.005L596.877,410.553z M623.272,412.786l-17.491-17.497l4.19-7.186l14.013,24.143
			C623.734,412.415,623.495,412.592,623.272,412.786 M605.05,394.558l-19.502-19.509l10.68-10.625l13.167,22.686L605.05,394.558z
			 M584.841,374.342l-6.315-6.317l6.251-23.329l10.932,18.835L584.841,374.342z M591.961,317.88l8.643-2.309l4.016,15.297
			l-19.072,10.951L591.961,317.88z M601.57,315.312l26.116-6.979l-0.009,9.292l-22.161,12.728L601.57,315.312z M628.687,308.065
			l25.892-6.92c0.097,0.281,0.216,0.558,0.349,0.83l-26.249,15.074L628.687,308.065z M655.423,294.719l-26.707-15.326l0.012-12.211
			l27.226,26.838C655.762,294.243,655.585,294.477,655.423,294.719 M627.717,278.82l-21.919-12.579l4.592-17.136l17.34,17.093
			L627.717,278.82z M604.901,265.727l-19.097-10.958l11.014-19.041l12.753,12.57L604.901,265.727z M597.336,234.833l13.343-23.069
			l5.93,10.271l-6.739,25.152L597.336,234.833z M611.257,210.764l13.84-23.929c0.275,0.135,0.562,0.247,0.851,0.346l-8.973,33.486
			L611.257,210.764z M621.021,179.771l-27.653,0.004l-5.714-9.894l33.494,8.983C621.089,179.164,621.042,179.465,621.021,179.771
			 M592.21,179.776l-26.202,0.004l-4.432-16.894l24.709,6.628L592.21,179.776z M564.975,179.78l-22.012,0.004l0.072-21.871
			l17.428,4.675L564.975,179.78z M543.038,156.88l0.082-24.715l11.012,6.292l6.039,23.018L543.038,156.88z M543.124,131.015
			l0.101-30.618c0.298-0.02,0.595-0.057,0.891-0.113l9.661,36.818L543.124,131.015z M508.43,112.343l-22.297,12.873l-13.231-13.044
			l24.052-6.387L508.43,112.343z M485.234,125.735l-18.497,10.679l-2.015-0.54l-10.827-18.655l17.883-4.749L485.234,125.735z
			 M453.375,116.323l-13.217-22.772l12.434,0.006l18.36,18.098L453.375,116.323z M439.577,92.551l-14.255-24.557
			c0.266-0.179,0.521-0.367,0.755-0.574l25.5,25.138L439.577,92.551z M389.055,93.523l-17.344,17.404l-23.898-6.41l19.24-11.006
			L389.055,93.523z M346.442,104.149l-36.413-9.767c0.059-0.298,0.105-0.598,0.127-0.902l54.884,0.03L346.442,104.149z
			 M302.34,100.271l-0.081,29.152l-10.467,5.987l9.631-35.271C301.726,100.2,302.031,100.249,302.34,100.271 M302.256,130.577
			l-0.073,25.896l-17.404,4.621l6.64-24.319L302.256,130.577z M302.181,157.508l-0.063,22.317l-22.454,0.003l4.811-17.618
			L302.181,157.508z M278.628,179.829l-25.159,0.004l6.375-11.083l23.513-6.243L278.628,179.829z M216.633,187.252
			c0.291-0.1,0.576-0.226,0.859-0.365l15.48,26.567l-6.33,11.003L216.633,187.252z M233.553,214.451l12.909,22.155l-13.033,13.078
			l-6.419-23.861L233.553,214.451z M246.983,237.5l10.825,18.578l-0.312,1.142l-19.076,11.013l-4.691-17.433L246.983,237.5z
			 M237.523,268.751l-22.871,13.205l0.012-12.025l18.25-18.313L237.523,268.751z M213.652,282.533l-24.151,13.945
			c-0.174-0.259-0.358-0.508-0.558-0.737l24.72-24.806L213.652,282.533z M188.27,306.044l25.333,25.104l-0.021,20.611
			l-26.065-45.145C187.782,306.437,188.036,306.249,188.27,306.044 M214.601,332.138l17.66,17.502l-6.391,23.404l-11.291-19.557
			L214.601,332.138z M225.499,374.403l-10.048,36.802c-0.307-0.062-0.617-0.112-0.93-0.135l0.056-55.585L225.499,374.403z
			 M221.309,418.866l29.857-0.007l5.984,10.364l-35.961-9.481C221.245,419.452,221.289,419.161,221.309,418.866 M252.322,418.859
			l25.585-0.004l4.587,17.052l-23.981-6.324L252.322,418.859z M278.943,418.855l22.508-0.004l-0.062,22.037l-17.78-4.688
			L278.943,418.855z M301.387,441.921l-0.073,25.881l-10.88-6.232l-6.526-24.257L301.387,441.921z M301.311,468.954l-0.081,29.158
			c-0.312,0.02-0.622,0.059-0.932,0.12l-9.497-35.301L301.311,468.954z M334.791,486.979l22.827-13.107l12.793,12.676l-24.814,6.623
			L334.791,486.979z M358.517,473.354l19.403-11.144l11.262,19.328l-17.652,4.711L358.517,473.354z M389.704,482.435l12.917,22.167
			l-12.535,0.037l-17.734-17.574L389.704,482.435z M403.202,505.6l14.883,25.542c-0.242,0.177-0.466,0.369-0.681,0.57
			l-26.312-26.076L403.202,505.6z M455.496,504.445l17.39-17.303l23.867,6.294l-18.978,10.941L455.496,504.445z M498.128,493.799
			l36.085,9.515c-0.058,0.297-0.101,0.597-0.121,0.897l-54.303,0.163L498.128,493.799z M541.913,497.396l0.095-28.897l10.125-5.837
			l-9.341,34.858C542.502,497.463,542.209,497.417,541.913,497.396 M542.012,467.342l0.085-25.58l16.841-4.495l-6.438,24.028
			L542.012,467.342z M542.1,440.726l0.073-21.914l21.71-0.004l-4.647,17.345L542.1,440.726z M564.918,418.808l25.99-0.005
			l-6.146,10.537l-24.411,6.515L564.918,418.808z M625.74,411.368c-0.302,0.102-0.599,0.231-0.891,0.377l-14.299-24.635
			l6.087-10.435L625.74,411.368z M609.974,386.117l-13.014-22.422l12.903-12.838l6.415,24.45L609.974,386.117z M596.44,362.801
			l-11.3-19.468l0.041-0.15l19.699-11.312l4.688,17.868L596.44,362.801z M605.779,331.354l21.897-12.575l-0.014,12.957
			l-17.273,17.188L605.779,331.354z M628.676,318.205l26.75-15.363c0.17,0.256,0.351,0.5,0.547,0.728l-27.31,27.173L628.676,318.205
			z M656.651,293.302l-27.922-27.524l0.022-22.71l28.667,49.652C657.149,292.901,656.89,293.092,656.651,293.302 M627.731,264.794
			l-17.044-16.8l6.627-24.736l10.44,18.083L627.731,264.794z M617.682,221.891l9.23-34.452c0.297,0.059,0.595,0.105,0.897,0.126
			l-0.053,51.777L617.682,221.891z M621.406,177.899l-34.46-9.243l-9.865-17.086l44.653,25.515
			C621.607,177.349,621.501,177.622,621.406,177.899 M585.578,168.29l-24.295-6.517l-5.936-22.621l20.009,11.432L585.578,168.29z
			 M554.992,137.797l-9.907-37.761c0.296-0.1,0.587-0.227,0.874-0.368l28.405,49.198L554.992,137.797z M535.577,94.494
			l-38.484,10.219l-19.5-11.142l57.868,0.031C535.481,93.9,535.519,94.198,535.577,94.494 M495.717,105.079l-23.643,6.278
			l-18.057-17.799l21.559,0.012L495.717,105.079z M453.004,92.558l-26.229-25.855c0.194-0.227,0.374-0.464,0.538-0.71l46.514,26.577
			L453.004,92.558z M414.658,65.127l-47.873,27.385l-56.636-0.031c-0.02-0.29-0.056-0.58-0.112-0.869l104.266-27.336
			C414.4,64.564,414.521,64.848,414.658,65.127 M299.656,99.55c0.26,0.127,0.529,0.233,0.802,0.327l-9.894,36.236l-17.801,10.182
			L299.656,99.55z M290.191,137.478l-6.529,23.913l-23.115,6.138l11.227-19.516L290.191,137.478z M259.185,167.891l-38.008,10.093
			c-0.096-0.28-0.215-0.556-0.348-0.829l49.226-28.158L259.185,167.891z M215.666,187.509l10.27,38.175l-11.247,19.55l0.058-57.606
			C215.055,187.608,215.361,187.569,215.666,187.509 M226.304,227.05l6.31,23.452l-17.949,18.011l0.022-21.27L226.304,227.05z
			 M213.665,269.516l-25.434,25.522c-0.229-0.201-0.472-0.384-0.723-0.552l26.178-45.503L213.665,269.516z M186.65,307.116
			l26.929,46.642l-0.058,57.32c-0.285,0.018-0.57,0.054-0.854,0.107l-26.91-103.694C186.059,307.389,186.357,307.259,186.65,307.116
			 M220.933,420.708l36.92,9.734l10.751,18.62l-48.011-27.504C220.726,421.283,220.836,420.997,220.933,420.708 M259.217,430.802
			l23.577,6.217l6.416,23.851l-18.879-10.816L259.217,430.802z M289.577,462.23l9.755,36.26c-0.282,0.096-0.559,0.217-0.833,0.351
			l-27.173-47.066L289.577,462.23z M308.881,504.005l36.576-9.761l18.284,10.474l-54.745,0.162
			C308.975,504.588,308.938,504.296,308.881,504.005 M346.83,493.877l24.404-6.513l17.436,17.279l-22.928,0.068L346.83,493.877z
			 M389.676,505.641l27.047,26.804c-0.271,0.335-0.509,0.691-0.714,1.063l-48.53-27.801L389.676,505.641z M428.9,533.714
			l49.146-28.336l56.056-0.167c0.021,0.304,0.061,0.607,0.12,0.91l-104.916,28.524C429.195,534.33,429.058,534.02,428.9,533.714
			 M544.632,498.137c-0.283-0.139-0.576-0.256-0.874-0.358l9.599-35.821l18.653-10.756L544.632,498.137z M553.723,460.589
			l6.329-23.619l23.995-6.404l-11.021,18.895L553.723,460.589z M585.417,430.2l35.739-9.538c0.099,0.284,0.22,0.564,0.355,0.842
			l-46.742,26.951L585.417,430.2z M626.709,411.12l-9.358-35.666l10.286-17.636l-0.054,53.189
			C627.291,411.027,626.999,411.064,626.709,411.12 M616.992,374.085l-6.31-24.044l16.979-16.893l-0.023,22.684L616.992,374.085z
			 M628.662,332.152l28.018-27.876c0.227,0.198,0.465,0.381,0.712,0.548l-28.752,49.292L628.662,332.152z M659.125,291.865
			c-0.284,0.098-0.563,0.219-0.839,0.354l-29.532-51.149l0.055-53.511c0.753-0.05,1.504-0.218,2.23-0.511L659.125,291.865z
			 M622.852,175.417c-0.226,0.254-0.43,0.523-0.615,0.803l-46.147-26.368l-29.262-50.685c0.235-0.158,0.461-0.326,0.673-0.507
			L622.852,175.417z M535.563,91.78c-0.051,0.272-0.09,0.546-0.109,0.823l-59.612-0.032l-48.028-27.444
			c0.14-0.288,0.253-0.587,0.353-0.89L535.563,91.78z M298.019,98.452c0.245,0.217,0.504,0.414,0.773,0.593l-27.749,48.234
			l-50.711,29.009c-0.166-0.25-0.342-0.489-0.533-0.712L298.019,98.452z M212.929,187.525c0.271,0.051,0.544,0.09,0.819,0.109
			l-0.06,59.34l-27.043,47.007c-0.295-0.144-0.601-0.259-0.911-0.362L212.929,187.525z M219.54,423.146
			c0.2-0.23,0.383-0.473,0.55-0.724l49.508,28.363l28.034,48.555c-0.263,0.177-0.515,0.364-0.748,0.568L219.54,423.146z
			 M308.878,506.81c0.06-0.307,0.106-0.616,0.127-0.93l56.473-0.167l50.102,28.703c-0.121,0.315-0.216,0.641-0.293,0.971
			L308.878,506.81z M546.199,499.189c-0.226-0.196-0.462-0.377-0.707-0.544l28.262-48.451l48.258-27.823
			c0.17,0.253,0.35,0.496,0.545,0.72L546.199,499.189z M629.556,411.145c-0.321-0.066-0.646-0.12-0.974-0.143l0.056-54.899
			l29.614-50.771c0.26,0.129,0.526,0.239,0.798,0.334L629.556,411.145z"/>
	</g>
	<g clip-path="url(#SVGID_2_)">
		<defs>
			<rect id="SVGID_5_" width="841.89" height="595.28"/>
		</defs>
		<clipPath id="SVGID_6_">
			<use xlink:href="#SVGID_5_"  overflow="visible"/>
		</clipPath>
		<path clip-path="url(#SVGID_6_)" fill="#FFFFFF" d="M310.296,278.042h-4.5c-2.768,0-4.585,0.778-5.451,2.334l-15.405,27.085
			l-15.23-27.085c-0.866-1.556-2.683-2.334-5.451-2.334h-4.588c-3.461,0-5.19,0.922-5.19,2.768v55.385
			c0,1.846,1.729,2.769,5.19,2.769h2.511c3.461,0,5.194-0.923,5.194-2.769v-35.828l0.344-0.085l12.547,22.413
			c0.81,1.095,1.961,1.645,3.461,1.645h2.511c1.5,0,2.655-0.55,3.461-1.645l12.55-22.413l0.345,0.085v35.828
			c0,1.846,1.733,2.769,5.194,2.769h2.507c3.461,0,5.194-0.923,5.194-2.769V280.81C315.49,278.964,313.757,278.042,310.296,278.042"
			/>
		<path clip-path="url(#SVGID_6_)" fill="#FFFFFF" d="M418.727,278.215h-40.931c-1.733,0-2.595,1.444-2.595,4.328v2.679
			c0,2.888,0.862,4.328,2.595,4.328h13.758v46.646c0,1.847,1.732,2.77,5.194,2.77h3.028c3.461,0,5.194-0.923,5.194-2.77V289.55
			h13.757c1.733,0,2.599-1.44,2.599-4.328v-2.679C421.325,279.659,420.459,278.215,418.727,278.215"/>
		<path clip-path="url(#SVGID_6_)" fill="#FFFFFF" d="M465.978,316.552c-0.753-1.846-1.703-3.533-2.854-5.064
			c-1.155-1.527-2.282-2.493-3.377-2.897v-0.346c3.116-1.154,5.581-2.93,7.398-5.323c1.816-2.393,2.729-5.205,2.729-8.438
			c0-10.846-7.184-16.269-21.55-16.269h-16.874c-2.31,0-3.462,1.155-3.462,3.462v54.519c0,1.847,1.729,2.77,5.19,2.77h2.944
			c3.461,0,5.189-0.923,5.189-2.77v-21.116h3.378c2.595,0,4.457,0.391,5.58,1.17c1.127,0.777,2.177,2.118,3.159,4.023l6.839,16.874
			c0.46,1.211,2.134,1.818,5.018,1.818h3.549c3.462,0,5.19-0.575,5.19-1.73c0-0.349-0.144-0.894-0.433-1.644L465.978,316.552z
			 M454.207,301.405c-1.327,1.444-2.884,2.166-4.673,2.166h-8.223V289.55h7.617c2.25,0,4.024,0.592,5.324,1.775
			c1.296,1.183,1.947,2.799,1.947,4.845C456.2,298.219,455.534,299.967,454.207,301.405"/>
		<path clip-path="url(#SVGID_6_)" fill="#FFFFFF" d="M488.476,277.955h-3.028c-3.461,0-5.193,0.951-5.193,2.855v55.386
			c0,1.903,1.732,2.857,5.193,2.857h3.028c3.462,0,5.194-0.954,5.194-2.857V280.81C493.67,278.905,491.938,277.955,488.476,277.955"
			/>
		<path clip-path="url(#SVGID_6_)" fill="#FFFFFF" d="M545.764,324.685c-0.232,0-0.982,0.289-2.25,0.866
			c-3.807,1.73-7.789,2.596-11.944,2.596c-9.863,0-14.797-6.531-14.797-19.6c0-13.067,4.99-19.603,14.972-19.603
			c4.269,0,7.903,0.694,10.903,2.078c1.038,0.461,1.645,0.693,1.816,0.693c1.039,0,2.236-1.038,3.592-3.116
			c1.354-2.077,2.035-3.75,2.035-5.018c0-1.732-1.961-3.172-5.884-4.327c-3.926-1.155-7.993-1.733-12.205-1.733
			c-19.268,0-28.902,10.272-28.902,30.808c0,10.676,2.32,18.536,6.965,23.582c4.645,5.049,11.814,7.574,21.505,7.574
			c4.327,0,8.627-0.638,12.895-1.905c4.271-1.269,6.405-3.057,6.405-5.367c0-1.038-0.549-2.552-1.645-4.542
			C548.13,325.681,546.975,324.685,545.764,324.685"/>
		<path clip-path="url(#SVGID_6_)" fill="#FFFFFF" d="M583.518,289.55h10.36c1.729,0,2.596-1.44,2.596-4.328v-2.679
			c0-2.884-0.866-4.328-2.596-4.328h-31.674c-2.31,0-3.461,1.155-3.461,3.461v7.874h13.324H583.518z"/>
		<path clip-path="url(#SVGID_6_)" fill="#FFFFFF" d="M579.217,313.435h12.323c1.732,0,2.595-1.439,2.595-4.328v-2.68
			c0-2.884-0.862-4.327-2.595-4.327h-32.797v11.335h13.324H579.217z"/>
		<path clip-path="url(#SVGID_6_)" fill="#FFFFFF" d="M593.963,327.456h-35.22v7.873c0,2.308,1.151,3.462,3.461,3.462h31.759
			c1.732,0,2.595-1.439,2.595-4.327v-2.684C596.558,328.896,595.695,327.456,593.963,327.456"/>
		<path clip-path="url(#SVGID_6_)" fill="#FFFFFF" d="M355.21,279.859c-0.465-1.211-2.109-1.817-4.934-1.817h-4.5
			c-2.827,0-4.472,0.606-4.933,1.817l-19.04,55.643c-0.228,0.811-0.344,1.327-0.344,1.558c0,1.271,1.76,1.904,5.278,1.904h3.461
			c2.25,0,3.578-0.605,3.983-1.816l3.461-10.558l3.718-11.423c0,0,5.888-18.23,6.406-20.945h0.345l6.232,20.945l3.722,11.423
			l3.462,10.558c0.401,1.211,2.017,1.816,4.845,1.816h3.807c2.884,0,4.327-0.634,4.327-1.904c0-0.458-0.084-0.98-0.26-1.558
			L355.21,279.859z"/>
	</g>
</g>
</svg>
