<?xml version="1.0" encoding="utf-8"?>
<!-- Generator: Adobe Illustrator 21.0.0, SVG Export Plug-In . SVG Version: 6.00 Build 0)  -->
<!DOCTYPE svg PUBLIC "-//W3C//DTD SVG 1.1//EN" "http://www.w3.org/Graphics/SVG/1.1/DTD/svg11.dtd">
<svg version="1.1" id="Calque_1" xmlns="http://www.w3.org/2000/svg" xmlns:xlink="http://www.w3.org/1999/xlink" x="0px" y="0px"
	 viewBox="0 0 841.9 595.3" style="enable-background:new 0 0 841.9 595.3;" xml:space="preserve">
<style type="text/css">
	.st0{fill:#DADADA;}
	.st1{fill:url(#SVGID_1_);}
</style>
<path class="st0" d="M667.8,295.1c-1.6-2.8-4.8-4.1-7.7-3.5l-28.1-105c0,0,0,0,0,0c3.5-2,4.7-6.5,2.7-10s-6.5-4.7-10-2.7
	c-0.4,0.2-0.8,0.5-1.1,0.8L548.2,98c2-2.3,2.5-5.7,0.9-8.5c-2-3.5-6.5-4.7-10-2.7c-1.6,0.9-2.7,2.4-3.3,4L428.4,63.3
	c0.3-1.7,0.1-3.4-0.9-5c-2-3.5-6.5-4.7-10-2.7c-2.8,1.6-4.1,4.7-3.5,7.7L309.8,90.6c-0.2-0.5-0.4-0.9-0.6-1.3c-2-3.5-6.5-4.7-10-2.7
	c-3.5,2-4.7,6.5-2.7,10c0.2,0.4,0.5,0.8,0.8,1.1l-78.2,77.1c-2.3-2-5.7-2.5-8.5-0.9c-3.5,2-4.7,6.5-2.7,10c0.9,1.6,2.4,2.7,4,3.3
	l-27.2,106.1c-1.7-0.3-3.4-0.1-5,0.9c-3.5,2-4.7,6.5-2.7,10c1.6,2.8,4.7,4.1,7.7,3.5l26.9,103.7c-0.5,0.2-0.9,0.4-1.3,0.6
	c-3.5,2-4.7,6.5-2.7,10c2,3.5,6.5,4.7,10,2.7c0.4-0.2,0.8-0.5,1.2-0.8l77.3,76.8c-2,2.3-2.4,5.7-0.8,8.4c2,3.5,6.5,4.7,10,2.7
	c1.6-0.9,2.7-2.3,3.3-4l106.5,28.6c-0.1,1.5,0.2,3,0.9,4.3c2,3.5,6.5,4.7,10,2.7c2.8-1.6,4.1-4.8,3.5-7.8l104.9-28.5
	c0.1,0.4,0.3,0.9,0.6,1.3c2,3.5,6.5,4.7,10,2.7s4.7-6.5,2.7-10c-0.2-0.4-0.5-0.8-0.8-1.1l76.4-76.1c2.3,2,5.7,2.4,8.5,0.8
	c3.5-2,4.7-6.5,2.7-10c-0.9-1.6-2.3-2.7-3.9-3.2L660,305.9c1.7,0.4,3.5,0.1,5.1-0.8C668.6,303.1,669.8,298.6,667.8,295.1z
	 M586.1,429l5.9-10.2l28.7,0c0,0.3,0.1,0.6,0.1,0.9L586.1,429z M428.4,532.9c-0.2-0.3-0.4-0.5-0.6-0.8l26.7-26.6l21.5-0.1
	L428.4,532.9z M308.6,503c-0.1-0.3-0.2-0.6-0.3-0.8l25.5-14.6l10.4,6L308.6,503z M258.5,169.1l-6.2,10.7l-30.8,0
	c0-0.3-0.1-0.6-0.1-0.9L258.5,169.1z M415.2,66c0.2,0.3,0.4,0.5,0.6,0.8L390,92.5l-21.3,0L415.2,66z M535.8,95.5
	c0.1,0.3,0.2,0.6,0.4,0.9l-26.8,15.4l-11.1-6.3L535.8,95.5z M404.4,505.6l9.1,0l6.6,24.6c-0.4,0.1-0.7,0.3-1.1,0.5L404.4,505.6z
	 M307.8,501.3c-0.2-0.3-0.4-0.5-0.5-0.7l18-17.9l7.5,4.3L307.8,501.3z M438.4,92.5l-8.4,0l-6.4-23.7c0.3-0.1,0.6-0.2,0.8-0.4
	L438.4,92.5z M536.7,97.2c0.2,0.2,0.3,0.5,0.5,0.7l-19.1,18.9l-7.7-4.4L536.7,97.2z M628.7,307l0-7.6l25.5-0.1
	c0,0.3,0.1,0.6,0.1,0.9L628.7,307z M510.6,486.6l7.4-4.3l17.8,17.6c-0.2,0.2-0.4,0.5-0.6,0.7L510.6,486.6z M220.9,416
	c-0.1-0.3-0.2-0.6-0.3-0.8l21.4-12.3l3.7,6.5L220.9,416z M213.6,292.9l0,7l-22.9,0.1c0-0.3-0.1-0.6-0.1-0.9L213.6,292.9z
	 M333.9,111.3l-7.6,4.3l-17.9-17.9c0.2-0.2,0.4-0.5,0.6-0.7L333.9,111.3z M418,68.5c0.3,0.1,0.6,0.2,0.9,0.3l-6.4,23.7l-8.4,0
	L418,68.5z M542,181.6l-0.1,21.5l-30.7,8.3l8.3-30.6l21.6,0L542,181.6z M621.4,182.7c0.1,0.3,0.2,0.5,0.3,0.8L602,194.8l-3.4-6
	L621.4,182.7z M654.2,298.3l-25.5,0.1l0-7.8l25.6,6.8C654.3,297.7,654.2,298,654.2,298.3z M627.7,298.4l-30.5,0.1l0,0l4.1-15.2
	l26.5,7L627.7,298.4z M596.6,296.5l-4.1-15.5l7.7,2L596.6,296.5z M596.1,298.5L596.1,298.5l-35.7,0.2l13.1-22.7l17.9,4.8
	L596.1,298.5z M536.6,499.2L519,481.8l6.4-3.7l11.9,20.6C537,498.8,536.8,499,536.6,499.2z M518.2,481l-19.7-19.5l10.9-10.9
	l15.4,26.5L518.2,481z M497.9,460.9l-5.8-5.7l15.8-4.2L497.9,460.9z M491.3,454.3L478,441.1l12.9-22.3l0.1,0l17.8,30.8L491.3,454.3z
	 M422.9,529.7l-0.1-24.2l7.6,0l-6.6,24.4C423.5,529.8,423.2,529.8,422.9,529.7z M422.8,504.5l-0.1-30.6l15.2,4l-7.2,26.6
	L422.8,504.5z M424.1,473.2l16.2-4.3l-2.2,8L424.1,473.2z M422.7,472.6l-0.1-35l22.7,12.9l-4.7,17.3L422.7,472.6z M220.1,414.3
	c-0.2-0.2-0.3-0.5-0.5-0.7l18.2-18l3.7,6.4L220.1,414.3z M238.5,394.9l19.7-19.5l10.9,10.8l-26.8,15.4L238.5,394.9z M258.9,374.6
	l5.6-5.5l4.1,15.1L258.9,374.6z M265.3,368.3l13.1-13l22.2,12.7L270,385.6L265.3,368.3z M190.7,301l22.9-0.1l0,7.1l-23-6.1
	C190.7,301.6,190.7,301.3,190.7,301z M214.6,300.9l31-0.1l-4,14.6l-27-7.1L214.6,300.9z M246.4,301.7l4.3,16.2l-8.2-2.2L246.4,301.7
	z M247.2,300.8l34.7-0.1l-12.8,22l-17.2-4.6L247.2,300.8z M307.7,98.5l17.7,17.7l-6.4,3.6L306.9,99
	C307.2,98.9,307.4,98.7,307.7,98.5z M326.1,116.9l19.8,19.8l-10.8,10.9l-15.6-26.9L326.1,116.9z M346.7,137.5l5.7,5.7l-15.4,4.1
	L346.7,137.5z M353.1,144l12.5,12.5l-12.7,21.9l-17.3-29.8L353.1,144z M378.8,137.2l18.7,10.7l-8.3,30.8l-22.3-22.3l11-19
	L378.8,137.2z M420.8,69.2l0.1,23.3l-7.3,0l6.3-23.4C420.1,69.2,420.4,69.2,420.8,69.2z M420.8,93.5l0.1,30.6l-14.8-4l7.2-26.6
	L420.8,93.5z M420.5,125l-17,4.5l2.3-8.5L420.5,125z M420.9,126l0.1,34.2l-22.3-12.8l4.5-16.7L420.9,126z M541.6,298.7l-31.7,0.1
	l30.6-30.4l1.2,2L541.6,298.7z M542.7,272.1l15.4,26.5l-15.5,0.1L542.7,272.1z M490.3,417.8l-35.1,0l0,0l26.4-15.2l8.7,15.1
	L490.3,417.8z M301.6,332.4L301.6,332.4l0,35l-22.4-12.8L301.6,332.4z M278.3,354.1l-19.8-11.3l11-18.9l31,8.2L278.3,354.1z
	 M332.9,214.8l1.9-1.1l11.3,41.9l-27.6-15.9L332.9,214.8z M317.6,239.2l-13.5-7.7l27-15.6L317.6,239.2z M421,180.8l0.1,29.7
	L391.5,181l0.3-0.2L421,180.8z M393.6,179.8L421,164l0,15.8L393.6,179.8z M507,210.7l0.9,1.6l-40.7,11l15.5-26.5L507,210.7z
	 M483.2,195.9l7.6-13L506,209L483.2,195.9z M540,267.5l-31,30.9l-16.8-16.8l6.9-25.4l40.7,10.8L540,267.5z M509.3,214.6l-10.7,39.6
	l-1,0.6l-25.3-6.7l-6.2-22.9l0.4-0.7l42-11.3L509.3,214.6z M509.4,212.9l0.3-0.1l-0.1,0.4L509.4,212.9z M357.5,300.4l0.7,0l8.1,29.9
	l0,0L353,317.2L357.5,300.4z M352.1,316.4l-16-15.9l20.3-0.1L352.1,316.4z M421.2,235.6l0,0.1l-30.1,8.1l12.9-12.8L421.2,235.6z
	 M404.8,230.3l16.3-16.1l0.1,20.4L404.8,230.3z M453.3,244.2l0.4,0.4l-31.3,53.5l0,0l-0.2-61.6l1.1-0.3L453.3,244.2z M425.2,235.7
	l15.4-4.2l11.2,11.2L425.2,235.7z M485.7,301.5l-7.4,27.4l-1.7,1.7l-52.9-30.4l61.7-0.2L485.7,301.5z M477.8,330.8l-0.1,0.4
	l-0.2-0.1L477.8,330.8z M420.7,300.2l0.4,0l-31.3,53.5l-22.2-22l-0.3-0.9L420.7,300.2z M367.1,329.8l-7.9-29.4l59.4-0.2L367.1,329.8
	z M366.8,332.2l4.7,17.6l-25.5-6.7l20.1-11.5L366.8,332.2z M368.2,333.6l21.1,20.9l-16.6-4.4L368.2,333.6z M388.8,355.5l-10.1,17.3
	l-5.8-21.5L388.8,355.5z M389.8,355.7l0.9,0.2l11.7,11.6l-23,6.2L389.8,355.7z M392.6,356.5l25.7,6.8l-14.8,4L392.6,356.5z
	 M420.2,363.8l1.2,0.3l0.1,21L404.3,368L420.2,363.8z M420.2,362.7l-29.1-7.7l-0.6-0.6l30.8-52.6l0.1,60.6L420.2,362.7z
	 M422.3,300.6l0.3,0.2l30.7,53l-0.2,0.2l-30.7,8.2L422.3,300.6z M424.4,301.8l51.5,29.6L454.1,353L424.4,301.8z M422.9,299.2
	L422.9,299.2l0.2-0.4l53.6-30.8l8.4,30.9L422.9,299.2z M424.1,297.1l30.3-51.8l21.8,21.8L424.1,297.1z M475.9,265.4l-20.7-20.7
	l16.3,4.3L475.9,265.4z M472.6,249.3l23.7,6.3l-19,10.9L472.6,249.3z M455.3,243.7l10.1-17.2l5.8,21.4L455.3,243.7z M421.3,296.4
	l-29.9-51.6l29.7-8L421.3,296.4z M390.4,243.1l-10.7-18.4l23.1,6.1L390.4,243.1z M390.4,245.1l30.9,53.3l0,0.2l-0.2,0.1l-54.1-31.1
	l22.5-22.3L390.4,245.1z M366.3,268.4l53.6,30.8l-61,0.2l-0.6-2.2l7.7-28.5L366.3,268.4z M357.9,299.4l-0.2,0l0.1-0.3L357.9,299.4z
	 M365.3,330.8l-19,10.9l6.3-23.5L365.3,330.8z M371.8,350.9l6.2,23l-0.1,0.1l-43.4,11.6l11.2-41.6L371.8,350.9z M403.2,368.3
	L421,386l-30.5,30.4l-11.2-41.6L403.2,368.3z M422.5,364.4l16,4.2l-15.9,15.8L422.5,364.4z M422.5,363.3l0-0.2l29.3-7.8l-12.5,12.4
	L422.5,363.3z M453.7,354.8l0.3-0.1l11.6,20l-25.2-6.7L453.7,354.8z M454.9,354.5l17.7-4.7l-6.5,24L454.9,354.5z M455.1,353.4
	l21.7-21.6l0.7,0.4l-4.4,16.4L455.1,353.4z M478.3,332.7l17.2,9.9l-21.4,5.7L478.3,332.7z M478.6,331.8l0.6-2.3l11.1-11l6.5,23.9
	L478.6,331.8z M479.7,327.5l6.5-24l3.8,13.8L479.7,327.5z M486.8,301.5l0.4-1.6l20.3-0.1l-16.7,16.6L486.8,301.5z M487.5,298.9
	l4.4-16.2l16.1,16.1L487.5,298.9z M486.4,298.9l-0.4,0l-8.2-30.2l13.2,13.2L486.4,298.9z M477.9,267.3l19.8-11.4l0.4,0.1l-6.7,24.8
	L477.9,267.3z M465,225.1l-10.7,18.3l-0.5-0.1l-12-12L465,225L465,225.1z M441,230.4l-18-18l30.4-30.1l11.3,41.7L441,230.4z
	 M439.8,230.7l-16.5,4.5l-1.1-0.3l-0.1-21.7l0.1-0.1L439.8,230.7z M421.1,212.8L403.7,230l-24.7-6.5l-0.6-1l10.8-40.2l1.3-0.8
	l30.5,30.5L421.1,212.8z M378.4,224.3l11.3,19.5l-0.6,0.6l-17.8,4.8l6.7-25L378.4,224.3z M387.7,245.9l-21.1,20.9l4.4-16.4
	L387.7,245.9z M365.5,266.7l-17.6-10.1l22-5.9L365.5,266.7z M365.2,267.7l-0.1,0.4l-11.5,11.4l-5.9-21.9L365.2,267.7z M364.6,270.1
	l-6.8,25.2l-3.9-14.6L364.6,270.1z M357.3,297.2l-0.6,2.2l-21.6,0.1l-0.1-0.1l18.1-17.9L357.3,297.2z M334.7,300.5l17.1,17l-6.7,25
	l-0.5,0.3l-41.6-11l-0.3-0.5l31.1-30.8L334.7,300.5z M303.7,332.9l39.7,10.5l-25.1,14.4L303.7,332.9z M317.4,358.4l-14.8,8.5
	l0.1-33.8L317.4,358.4z M344.7,343.8l-11,40.7l-15-25.7L344.7,343.8z M377.2,375.3l-15.4,26.4l-26.6-15.2L377.2,375.3z M378.3,375.3
	l11.3,41.9l-0.2,0.2l-26.7-15.2L378.3,375.3z M390.7,417.5l30.8-30.7l0.1,31l-30.8,0L390.7,417.5z M422.5,387.5l30.5,30.3l-30.5,0
	L422.5,387.5z M451.5,418.8l-28.8,16.5l0-16.5L451.5,418.8z M454,417.4l-31.5-31.2l0-0.3l17-16.9l26,6.9l-11.2,41.4L454,417.4z
	 M466.5,376.4l14.7,25.4l-25.6,14.7L466.5,376.4z M467.6,376.3l39.6,10.5L482,401.3L467.6,376.3z M508.4,386.1l-41.6-11l0-0.1
	l6.9-25.6l22.9-6.1l0.4,0.3l11.5,42.4L508.4,386.1z M491.1,317.6l17.8-17.7l0,0l30.9,30.9L497.8,342L491.1,317.6z M499.3,255.3
	l0.1-0.4l25-14.3l14.6,25.2L499.3,255.3z M499.8,253.6l10.2-37.7l13.9,23.9L499.8,253.6z M510.4,214.5l0.4-1.6l29.9,17.2l-16,9.2
	L510.4,214.5z M508.9,212l-0.2-0.3l0.5,0.3L508.9,212z M465.8,223.7l-0.2,0l-11.5-42.3l0.6-0.6l0.1,0l27,15.5L465.8,223.7z
	 M453.1,181.1l-30.8,30.5l-0.1-0.1l-0.1-30.7l30.9,0L453.1,181.1z M389.8,180.8l-0.2,0.1l0-0.1L389.8,180.8z M388.5,181.6
	l-25.2,14.6l-8.9-15.4l34.3,0L388.5,181.6z M388.1,183l-10.3,38.3l-14-24.2L388.1,183z M377.4,222.6l-0.1,0.4l-40.1-10.6l25.7-14.8
	L377.4,222.6z M377,224l-6.9,25.6l-22.9,6.2l-11.5-42.6l0.2-0.1L377,224z M334.6,212.7l-0.6,0.4l0.3-0.5L334.6,212.7z M352.8,280.4
	l-18.5,18.3l-30.4-30.1l42.6-11.5L352.8,280.4z M333.6,299.4l-0.1,0.1l-30.7,0.1l0.1-30.7L333.6,299.4z M332.4,300.5l-29.7,29.4
	l0.1-29.3L332.4,300.5z M301.7,329.4L285,300.7l16.8-0.1L301.7,329.4z M317.9,359.2l15.2,26.1L302.7,368L317.9,359.2z M361.3,402.5
	l-8.5,14.5l-16.9-29L361.3,402.5z M362.1,403l26,14.8l-34.6,0L362.1,403z M421.6,418.8l0,17l-29.8-17L421.6,418.8z M453.5,418.8
	l0.5,0l-8.3,30.7l-22.9-13L453.5,418.8z M454.8,419.5l22,21.8l-11.3,19.5l-19-10.8L454.8,419.5z M455.5,418.8l34.3,0l-12.5,21.6
	L455.5,418.8z M482.5,402.1l25.3-14.5L491,416.7L482.5,402.1z M509.4,384.9l-11-40.6l25.9,14.9L509.4,384.9z M525.1,359.7l14.7,8.4
	l-29.2,16.8L525.1,359.7z M498.1,343l42.1-11.2l-15.4,26.6L498.1,343z M540.9,330.4l-30.5-30.6l31.2-0.1l-0.1,29.7L540.9,330.4z
	 M541.2,267.7l0.2-0.2l0.3,0.1l0,0.9L541.2,267.7z M542.7,266.2L565,244l19.4,11.1L573,274.8l-30.4-8L542.7,266.2z M542.7,264.8
	l0.1-33.6l21.3,12.2L542.7,264.8z M541.7,265.8l-0.6,0.6l-0.7-0.2l-15.1-26.1l16.5-9.5l0.1,0L541.7,265.8z M541.7,229.5l-29.9-17.2
	l30.1-8.1L541.7,229.5L541.7,229.5z M507.7,210l-16.3-28.1l0.6-1.1l26.4,0l-8.3,30.6L507.7,210z M490.9,180.9L490.9,180.9
	L490.9,180.9L490.9,180.9z M490.3,181.9l-7.9,13.5l-25.5-14.6l32.7,0L490.3,181.9z M452.7,179.8l-30.7,0l0-16.4l1.3-0.8l29.3,16.8
	L452.7,179.8z M422,162.3l0-0.3l0.3,0.2L422,162.3z M421,162.8l-29.4,17l-1.2,0l-0.3-0.3l8.4-31.1l22.5,12.9L421,162.8z
	 M397.8,146.9l-17.6-10.1l21.9-5.8L397.8,146.9z M366.2,155.6l-11.9-11.9l22.3-5.9L366.2,155.6z M366.4,157.2l22.5,22.6l0,0l-35.2,0
	l-0.2-0.4L366.4,157.2z M353.2,180.8l9.2,15.9L335.8,212l-0.4-0.1l-0.2-0.9l17.5-30.2L353.2,180.8z M334.8,209.6l-7.8-28.8l24.5,0
	L334.8,209.6z M334.1,210.9l-0.3,0.6l-30.7-8.1l0.1-22.2l0.4-0.4l22.5,0L334.1,210.9z M333.2,212.4l-1,1.7l-29.1,16.8l-0.2-0.1
	l0.1-26.4L333.2,212.4z M303.1,232l14,8l-14.2,24.5l0.1-32.4L303.1,232z M318,240.6l27.3,15.7l-42.2,11.4l-0.2-0.2l0-1L318,240.6z
	 M301.9,269.1l-0.1,30.6l-17.4,0.1L284,299l17.3-29.8L301.9,269.1z M283.8,300.7l17.7,30.4l-0.2,0.2l-31.3-8.3l13-22.3L283.8,300.7z
	 M268.5,323.6l-10.4,17.9l-6-22.2L268.5,323.6z M277.5,354.8L265,367.2l-6.2-23L277.5,354.8z M332.6,386.2l-30,8l0.1-25.1
	L332.6,386.2z M333.1,387.1l-8.3,30.8l-22.3,0l-0.1-0.1l0.1-22.6L333.1,387.1z M334.1,387.1L334.1,387.1l17.9,30.8l-26.2,0
	L334.1,387.1z M388,418.8l-21.6,21.5l-12.5-21.5L388,418.8z M389.4,418.8l0.5,0l0.3,0.2l8.2,30.4l-20,11.5l-11.4-19.6L389.4,418.8z
	 M391.3,419.7l29.4,16.8l-21.6,12.4L391.3,419.7z M446.2,451l18.3,10.4l-22.8,6.1L446.2,451z M477.5,442l12.7,12.6l-23.6,6.3
	L477.5,442z M491.6,417.7l17.5-30.2l8.2,30.4l-25.7,0L491.6,417.7z M510.1,387.6l31.1,8.2l-0.1,22l0,0l-22.8,0L510.1,387.6z
	 M509.8,386.5L509.8,386.5l31-17.8l0.6,0.3l-0.1,25.8L509.8,386.5z M540.8,367.5l-15.2-8.7l15.5-26.8l0.3,0.3l-0.1,34.8L540.8,367.5
	z M542.5,333.4l21.1,21.1l-21.2,12.2L542.5,333.4z M542.5,331.9l0-0.8l29.8-8l11.5,19.7l-19.3,11.1L542.5,331.9z M542.5,330.1l0-0.4
	l16.8-29l12.5,21.5L542.5,330.1z M542.5,327.7l0.1-28l16.1-0.1l0,0L542.5,327.7z M559.2,298.7l-16.5-28.5l0-2.3l29.9,7.9
	L559.2,298.7L559.2,298.7z M574,275.1l11-19l6.2,23.5L574,275.1z M565.7,243.3l12.6-12.5l6.1,23.3L565.7,243.3z M564.9,242.7
	l-22.1-12.7l0-0.1l30.5-17.5l0.4,0.4l4.4,16.7L564.9,242.7z M575.1,214.3l9.2,9.1l-5.4,5.4L575.1,214.3z M574.6,212.4l-0.1-0.6
	l27.3-15.7l3.6,6.3L585,222.7L574.6,212.4z M602.5,195.7l19.7-11.3c0.2,0.3,0.4,0.5,0.5,0.7L606,201.7L602.5,195.7z M601.2,195.3
	l-27,15.5l-3.8-14.4l27.2-7.4L601.2,195.3z M573.2,211L561,199l8.4-2.3L573.2,211z M572.5,211.8l-29.7,17.1l0.1-25l17-4.6
	L572.5,211.8z M542.9,202.8l0.1-20.2l16.1,15.9L542.9,202.8z M519.8,179.8L524,164l16,15.8L519.8,179.8z M518.7,179.8l-26.1,0
	l17.3-29.7l13.2,13.1L518.7,179.8z M510.5,149.2L510.5,149.2l15.4,4.1l-2.4,8.8L510.5,149.2z M511.1,148.3l15.1-25.8l7,4l-7,25.9
	L511.1,148.3z M526.7,121.6l12.8-22c0.3,0.1,0.6,0.3,0.9,0.4l-6.9,25.5L526.7,121.6z M538.6,99.1l-12.8,22l-6.7-3.9l18.9-18.7
	C538.1,98.8,538.4,99,538.6,99.1z M525.3,122L510.1,148l-1.1-0.3l-10.4-10.2l19.7-19.5L525.3,122z M507,147.2l-14.4-3.9l5.2-5.2
	L507,147.2z M508.5,148.6l0.8,0.8l-17.8,30.4l-1.3,0l-12.5-21.6l14.2-14L508.5,148.6z M489.1,179.8l-33.2,0l21.1-20.9L489.1,179.8z
	 M454.7,179.5l-1.2-0.7l-7.9-29l19.5-11.3l11.3,19.5L454.7,179.5z M452.2,178.1l-28-16l20.4-11.8L452.2,178.1z M423.3,161.5
	l-1.3-0.7l-0.1-35l0.6-0.1l16.8,4.5l5.2,19.2L423.3,161.5z M424.4,125.1l12.6-3.3l2,7.2L424.4,125.1z M422.4,124.5l-0.6-0.2
	l-0.1-30.8l7.5,0l7.4,27.2L422.4,124.5z M421.8,92.5l-0.1-23.3c0.3,0,0.6-0.1,0.9-0.1l6.4,23.4L421.8,92.5z M412.2,93.5l-7.1,26.3
	l-14.7-3.9l13-22.4L412.2,93.5z M404.8,120.8l-2.4,9l-23.4,6.2l-0.2-0.1l11.1-19.1L404.8,120.8z M377.3,136.5l-23.9,6.3l-6.1-6.1
	l11.2-11.3l18.8,10.8L377.3,136.5z M346.6,136.1L327,116.4l7.9-4.5l22.8,13.1L346.6,136.1z M305.2,99.9c0.3-0.1,0.6-0.2,0.8-0.4
	l12.1,20.8l-6.4,3.7L305.2,99.9z M318.6,121.2l15.5,26.8l-14.9,4L312,125L318.6,121.2z M333.6,149.2l-11.9,11.9l-2.2-8.2
	L333.6,149.2z M334.9,149.3l17.5,30.1l-0.2,0.4l-25.4,0l-4.7-17.6L334.9,149.3z M325.7,179.8l-21.3,0l16.7-16.8L325.7,179.8z
	 M302.1,203.1l-16.4-4.3l16.5-16.5L302.1,203.1z M302,204.1l-0.1,26.1l-30.3-17.4l13.2-13.2L302,204.1z M270.8,212.1l4.2-15.2
	l8.7,2.3L270.8,212.1z M269.9,211.8l-26.2-15l4-7l26.3,7L269.9,211.8z M242.9,196.2l-22.1-12.7c0.1-0.3,0.2-0.6,0.3-0.9l25.6,6.8
	L242.9,196.2z M220.3,184.4l22.1,12.7l-3.8,6.6l-18.8-18.6C220,184.9,220.2,184.7,220.3,184.4z M243.3,197.6l26.4,15.2l-0.2,0.8
	L259,224l-19.7-19.5L243.3,197.6z M268.9,215.5l-3.9,14.4l-5.2-5.2L268.9,215.5z M270.3,214.1l0.6-0.6l31.1,17.9l0,0.2l-22.4,12.9
	l-13.9-13.7L270.3,214.1z M302,232.7l-0.1,33.5l-0.1,0.2l-21.4-21.2L302,232.7z M301.3,267.3l-0.6,1l-29.8,8.1l-11.2-19.2l19.9-11.5
	L301.3,267.3z M299.9,269.6L283.4,298l-12.1-20.7L299.9,269.6z M282.8,299l-0.4,0.7l-35.5,0.1l0,0l4.7-17.1l18.7-5.1L282.8,299z
	 M246.4,297.9l-3.5-12.9l7.5-2L246.4,297.9z M245.9,299.8L245.9,299.8l-31.2,0.2l0-7.3l27.3-7.4L245.9,299.8z M190.4,302.9l23.3,6.2
	l0,8.1L190,303.7C190.2,303.5,190.3,303.2,190.4,302.9z M214.6,309.3l26.7,7.1l-3.9,14.4l-22.8-13L214.6,309.3z M242.3,316.7
	l8.7,2.3l6.2,23.1l-18.9-10.8L242.3,316.7z M264.2,368l-6,6l-11.3-11.2l10.9-18.7L264.2,368z M257.5,374.6L238,394l-4.6-7.9l13-22.4
	L257.5,374.6z M237.2,394.7l-18.4,18.2c-0.2-0.2-0.5-0.4-0.7-0.6l14.7-25.3L237.2,394.7z M242.8,402.4l26.6-15.3l4,14.9l-26.7,7.1
	L242.8,402.4z M270.5,387.6l12.1,12l-8.3,2.2L270.5,387.6z M270.7,386.4l30.9-17.7l-0.1,25.9l-17.8,4.8L270.7,386.4z M301.5,395.5
	l-0.1,21.3L284.5,400L301.5,395.5z M324.5,418.8l-4.4,16.4l-16.6-16.4L324.5,418.8z M325.6,418.8l26.2,0L334,449.1l-13.1-13
	L325.6,418.8z M332.7,449.1l-14.3-3.8l2.2-8.2L332.7,449.1z M333.3,450.3l-15.7,26.8l-6.8-3.9l7.3-26.9L333.3,450.3z M317.1,478
	L305,498.9c-0.3-0.1-0.6-0.3-0.9-0.4l6.5-24.2L317.1,478z M305.8,499.4l12.2-20.8l6.3,3.6l-17.8,17.8
	C306.3,499.7,306.1,499.5,305.8,499.4z M318.5,477.7l15.7-26.9l10.9,10.8l-20,19.9L318.5,477.7z M336,451.1l15.5,4.1l-5.7,5.6
	L336,451.1z M334.8,449.7l17.9-30.7l12.8,22l-13.3,13.2L334.8,449.7z M366.1,442l11,18.9l-23.7-6.2L366.1,442z M398.5,450.4
	l4.7,17.4l-23.9-6.3L398.5,450.4z M399.4,449.8l22.2-12.8l0.1,35.5l-17.4-4.6L399.4,449.8z M420.2,473.3l-13.5,3.6l-2.1-7.7
	L420.2,473.3z M421.7,473.9l0.1,30.7l-7.6,0l-7.2-26.7L421.7,473.9z M421.8,505.5l0.1,24.2c-0.3,0-0.6,0.1-0.9,0.1l-6.5-24.3
	L421.8,505.5z M424.8,530.1l6.7-24.6l8.2,0l-14.4,24.8C425.1,530.3,425,530.2,424.8,530.1z M431.7,504.5l7.1-26.3l14.4,3.8l-13,22.5
	L431.7,504.5z M439.1,477.2l2.3-8.6l23.1-6.2l-10.8,18.6L439.1,477.2z M491,455.4l6.2,6.2l-11.1,11l-19-10.8L491,455.4z
	 M497.9,462.3l19.5,19.3l-7.7,4.4L487,473.1L497.9,462.3z M539,497.8c-0.3,0.1-0.6,0.2-0.8,0.4l-11.9-20.6l6.3-3.6L539,497.8z
	 M525.8,476.7l-15.3-26.5l14.6-3.9l7.2,26.6L525.8,476.7z M511.3,449l11.4-11.3l2.1,7.7L511.3,449z M509.7,449.1l-17.5-30.2l25.3,0
	l4.8,17.7L509.7,449.1z M518.6,418.8l21.5,0l-17,16.9L518.6,418.8z M542.2,396.1l16.4,4.3l-16.4,16.4L542.2,396.1z M542.3,395.1
	l0.1-25.5l30,17.2l-12.9,12.8L542.3,395.1z M572,388.5l-3.6,13.4l-7.8-2.1L572,388.5z M573.3,387.4l26.9,15.5l-3.8,6.5l-27-7.2
	L573.3,387.4z M601.1,403.3l20.4,11.7c-0.1,0.3-0.2,0.6-0.3,0.9l-23.8-6.3L601.1,403.3z M622,414.2l-20.4-11.7l3.7-6.3l17.3,17.3
	C622.4,413.7,622.2,414,622,414.2z M600.7,402l-26.8-15.4l10.9-10.8l19.7,19.7L600.7,402z M573.9,385.2l4.3-16.1l5.9,5.9
	L573.9,385.2z M572.7,385.9l-30.4-17.5l0-0.6l21.9-12.6l13.1,13.1L572.7,385.9z M565.2,354.7l18.8-10.8l-6.2,23.3L565.2,354.7z
	 M573.3,322.9l17.6-4.7l-6.4,23.9L573.3,322.9z M572.7,322l-12.9-22.3l0,0l36-0.1l-4.7,17.5L572.7,322z M596.6,300.4l3.7,14.2
	l-8.1,2.2L596.6,300.4z M597.4,299.5l30.3-0.1l0,7.9l-26.4,7L597.4,299.5z M654.6,296.4l-25.9-6.9l0-9l26.2,15
	C654.8,295.9,654.7,296.1,654.6,296.4z M627.7,289.3l-26.2-6.9l4.1-15.1l22.2,12.7L627.7,289.3z M600.5,282.1l-8.2-2.2L586,256
	l18.6,10.7L600.5,282.1z M579.2,229.9l5.8-5.8l11.1,10.9l-10.7,18.5L579.2,229.9z M585.7,223.4l20.1-20l4.3,7.4l-13.5,23.3
	L585.7,223.4z M606.6,202.6l16.9-16.9c0.2,0.2,0.5,0.4,0.7,0.6l-13.6,23.4L606.6,202.6z M621.1,181.7l-23.1,6.2l-4.1-7.2l27.1,0
	C621,181.1,621.1,181.4,621.1,181.7z M597.1,188.2l-26.9,7.3l-3.9-14.7l26.5,0L597.1,188.2z M569.2,195.7l-9,2.4l-17.2-17l0-0.4
	l22.3,0L569.2,195.7z M541.5,179.8l-17.1-16.9l2.5-9.3l15.2,4.1l-0.1,22.1L541.5,179.8z M527.1,152.6l6.9-25.6l8,4.6l-0.1,25
	L527.1,152.6z M534.3,126l7-25.7c0.3,0.1,0.6,0.1,0.9,0.1l-0.1,30L534.3,126z M517.4,117.5l-19.5,19.3l-11-10.9l22.6-13L517.4,117.5
	z M497.2,137.5l-5.6,5.6l-23.4-6.3l17.9-10.3L497.2,137.5z M490.7,143.9l-13.6,13.4L466,138l0.9-0.5L490.7,143.9z M465.5,137.1
	L465.5,137.1L465.5,137.1L465.5,137.1z M464.6,137.6l-19.3,11.1l-5-18.4l23.7,6.4L464.6,137.6z M440,129.2l-2.1-7.8l15-4l10.5,18
	L440,129.2z M437.6,120.5l-7.3-27l8.7,0l13.4,23L437.6,120.5z M417.1,68l-14.3,24.5l-11.4,0l25-25.1C416.7,67.7,416.9,67.8,417.1,68
	z M402.3,93.5l-12.9,22.1l-16.6-4.4l17.6-17.7L402.3,93.5z M388.9,116.6l-11,18.9l-18.6-10.7L372,112L388.9,116.6z M358.4,124.3
	l-22.5-12.9l10.7-6.1l24.3,6.5L358.4,124.3z M334.9,110.8l-25.4-14.6c0.1-0.3,0.2-0.5,0.3-0.8l35.4,9.5L334.9,110.8z M304.3,100.1
	l6.6,24.4l-7.6,4.3l0.1-28.6C303.7,100.2,304,100.2,304.3,100.1z M311.1,125.5l7.2,26.7l-15.1,4l0.1-26.2L311.1,125.5z M318.5,153.2
	l2.4,8.7l-17.8,17.8l0.1-22.5L318.5,153.2z M284.5,198.4l-9.3-2.5l4.1-15.1l22.7,0L284.5,198.4z M274.3,195.7l-26-6.9l4.6-8l25.5,0
	L274.3,195.7z M247.3,188.6l-25.9-6.8c0.1-0.3,0.1-0.6,0.1-0.9l30.2,0L247.3,188.6z M219.1,185.8l19,18.8l-4.5,7.8l-15.2-26.1
	C218.6,186.2,218.9,186,219.1,185.8z M238.8,205.4l19.5,19.4l-11.1,11.2l-13.1-22.4L238.8,205.4z M259,225.4l5.6,5.6l-6.5,23.7
	l-10.5-18L259,225.4z M265.5,231.8l13.3,13.1l-19.6,11.3l-0.2-0.4L265.5,231.8z M258.7,257.7l11.1,19l-17.9,4.8l6.5-23.6
	L258.7,257.7z M250.8,281.8l-8.1,2.2l-4-14.8l18.4-10.6L250.8,281.8z M241.7,284.3l-27.1,7.3l0-8.5l23.1-13.4L241.7,284.3z
	 M213.6,291.9l-23.3,6.3c-0.1-0.3-0.2-0.6-0.3-0.8l23.6-13.7L213.6,291.9z M189.5,304.6l24.1,13.7l0,11.4L189,305.3
	C189.2,305.1,189.4,304.9,189.5,304.6z M214.6,318.9l22.5,12.8l-4.6,16.8l-18-17.8L214.6,318.9z M238,332.3l19.1,10.9l-11,18.9
	l-12.8-12.7L238,332.3z M245.7,362.9l-12.9,22.1l-6.2-10.8l6.5-23.8L245.7,362.9z M232.2,386l-15,25.8c-0.3-0.1-0.5-0.2-0.8-0.3
	l9.8-35.8L232.2,386z M221.2,417l25-6.7l4.4,7.6l-29.3,0C221.3,417.6,221.2,417.3,221.2,417z M247.2,410l26.4-7.1l4,14.9l-25.9,0
	L247.2,410z M274.6,402.7l8.8-2.4l17.7,17.5l-22.4,0L274.6,402.7z M319.8,436.4l-2.4,8.7l-15-4l0.1-22L319.8,436.4z M317.2,446.1
	l-7.2,26.7l-7.7-4.4l0.1-26.2L317.2,446.1z M309.7,473.8l-6.6,24.5c-0.3-0.1-0.6-0.1-0.9-0.1l0.1-28.6L309.7,473.8z M326,481.9
	l19.8-19.8l11.1,11l-23.1,13.3L326,481.9z M346.5,461.5l6.1-6.1l24.1,6.3l-18.9,10.9L346.5,461.5z M403.5,468.9l2.2,8.3l-15.6,4.2
	l-11-18.8L403.5,468.9z M406,478.1l7.1,26.5l-9.4,0l-13.1-22.4L406,478.1z M426.2,530.8l14.6-25.3l12.3,0L427,531.4
	C426.7,531.2,426.5,531,426.2,530.8z M441.4,504.5l12.9-22.3l17.5,4.6l-17.7,17.6L441.4,504.5z M454.8,481.3l11.1-19.2l19.5,11.1
	L472.6,486L454.8,481.3z M486.3,473.8l22.4,12.8l-10.7,6.1l-24.3-6.4L486.3,473.8z M509.6,487.2l25.2,14.3c-0.1,0.3-0.2,0.6-0.3,0.8
	l-35.1-9.3L509.6,487.2z M540,497.5l-6.5-24.1l7.6-4.4l-0.1,28.3C540.6,497.4,540.3,497.5,540,497.5z M533.2,472.4l-7.2-26.4l15.1-4
	l-0.1,25.9L533.2,472.4z M525.7,445.1l-2.3-8.3l17.7-17.6l-0.1,21.8L525.7,445.1z M559.7,400.7l8.4,2.2l-4,14.9l-21.6,0L559.7,400.7
	z M569.1,403.2l26.8,7.1l-4.4,7.5l-26.3,0L569.1,403.2z M596.9,410.6l24,6.4c-0.1,0.3-0.1,0.6-0.1,0.9l-28.1,0L596.9,410.6z
	 M623.3,412.8l-17.5-17.5l4.2-7.2l14,24.1C623.7,412.4,623.5,412.6,623.3,412.8z M605,394.6L585.5,375l10.7-10.6l13.2,22.7
	L605,394.6z M584.8,374.3l-6.3-6.3l6.3-23.3l10.9,18.8L584.8,374.3z M592,317.9l8.6-2.3l4,15.3l-19.1,11L592,317.9z M601.6,315.3
	l26.1-7l0,9.3l-22.2,12.7L601.6,315.3z M628.7,308.1l25.9-6.9c0.1,0.3,0.2,0.6,0.3,0.8l-26.2,15.1L628.7,308.1z M655.4,294.7
	l-26.7-15.3l0-12.2L656,294C655.8,294.2,655.6,294.5,655.4,294.7z M627.7,278.8l-21.9-12.6l4.6-17.1l17.3,17.1L627.7,278.8z
	 M604.9,265.7l-19.1-11l11-19l12.8,12.6L604.9,265.7z M597.3,234.8l13.3-23.1l5.9,10.3l-6.7,25.2L597.3,234.8z M611.3,210.8
	l13.8-23.9c0.3,0.1,0.6,0.2,0.9,0.3l-9,33.5L611.3,210.8z M621,179.8l-27.7,0l-5.7-9.9l33.5,9C621.1,179.2,621,179.5,621,179.8z
	 M592.2,179.8l-26.2,0l-4.4-16.9l24.7,6.6L592.2,179.8z M565,179.8l-22,0l0.1-21.9l17.4,4.7L565,179.8z M543,156.9l0.1-24.7l11,6.3
	l6,23L543,156.9z M543.1,131l0.1-30.6c0.3,0,0.6-0.1,0.9-0.1l9.7,36.8L543.1,131z M508.4,112.3l-22.3,12.9l-13.2-13l24.1-6.4
	L508.4,112.3z M485.2,125.7l-18.5,10.7l-2-0.5l-10.8-18.7l17.9-4.7L485.2,125.7z M453.4,116.3l-13.2-22.8l12.4,0l18.4,18.1
	L453.4,116.3z M439.6,92.6L425.3,68c0.3-0.2,0.5-0.4,0.8-0.6l25.5,25.1L439.6,92.6z M389.1,93.5l-17.3,17.4l-23.9-6.4l19.2-11
	L389.1,93.5z M346.4,104.1L310,94.4c0.1-0.3,0.1-0.6,0.1-0.9l54.9,0L346.4,104.1z M302.3,100.3l-0.1,29.2l-10.5,6l9.6-35.3
	C301.7,100.2,302,100.2,302.3,100.3z M302.3,130.6l-0.1,25.9l-17.4,4.6l6.6-24.3L302.3,130.6z M302.2,157.5l-0.1,22.3l-22.5,0
	l4.8-17.6L302.2,157.5z M278.6,179.8l-25.2,0l6.4-11.1l23.5-6.2L278.6,179.8z M216.6,187.3c0.3-0.1,0.6-0.2,0.9-0.4l15.5,26.6
	l-6.3,11L216.6,187.3z M233.6,214.5l12.9,22.2l-13,13.1l-6.4-23.9L233.6,214.5z M247,237.5l10.8,18.6l-0.3,1.1l-19.1,11l-4.7-17.4
	L247,237.5z M237.5,268.8L214.7,282l0-12l18.3-18.3L237.5,268.8z M213.7,282.5l-24.2,13.9c-0.2-0.3-0.4-0.5-0.6-0.7l24.7-24.8
	L213.7,282.5z M188.3,306l25.3,25.1l0,20.6l-26.1-45.1C187.8,306.4,188,306.2,188.3,306z M214.6,332.1l17.7,17.5l-6.4,23.4
	l-11.3-19.6L214.6,332.1z M225.5,374.4l-10,36.8c-0.3-0.1-0.6-0.1-0.9-0.1l0.1-55.6L225.5,374.4z M221.3,418.9l29.9,0l6,10.4
	l-36-9.5C221.2,419.5,221.3,419.2,221.3,418.9z M252.3,418.9l25.6,0l4.6,17.1l-24-6.3L252.3,418.9z M278.9,418.9l22.5,0l-0.1,22
	l-17.8-4.7L278.9,418.9z M301.4,441.9l-0.1,25.9l-10.9-6.2l-6.5-24.3L301.4,441.9z M301.3,469l-0.1,29.2c-0.3,0-0.6,0.1-0.9,0.1
	l-9.5-35.3L301.3,469z M334.8,487l22.8-13.1l12.8,12.7l-24.8,6.6L334.8,487z M358.5,473.4l19.4-11.1l11.3,19.3l-17.7,4.7
	L358.5,473.4z M389.7,482.4l12.9,22.2l-12.5,0l-17.7-17.6L389.7,482.4z M403.2,505.6l14.9,25.5c-0.2,0.2-0.5,0.4-0.7,0.6l-26.3-26.1
	L403.2,505.6z M455.5,504.4l17.4-17.3l23.9,6.3l-19,10.9L455.5,504.4z M498.1,493.8l36.1,9.5c-0.1,0.3-0.1,0.6-0.1,0.9l-54.3,0.2
	L498.1,493.8z M541.9,497.4l0.1-28.9l10.1-5.8l-9.3,34.9C542.5,497.5,542.2,497.4,541.9,497.4z M542,467.3l0.1-25.6l16.8-4.5
	l-6.4,24L542,467.3z M542.1,440.7l0.1-21.9l21.7,0l-4.6,17.3L542.1,440.7z M564.9,418.8l26,0l-6.1,10.5l-24.4,6.5L564.9,418.8z
	 M625.7,411.4c-0.3,0.1-0.6,0.2-0.9,0.4l-14.3-24.6l6.1-10.4L625.7,411.4z M610,386.1l-13-22.4l12.9-12.8l6.4,24.5L610,386.1z
	 M596.4,362.8l-11.3-19.5l0-0.2l19.7-11.3l4.7,17.9L596.4,362.8z M605.8,331.4l21.9-12.6l0,13l-17.3,17.2L605.8,331.4z M628.7,318.2
	l26.7-15.4c0.2,0.3,0.4,0.5,0.5,0.7l-27.3,27.2L628.7,318.2z M656.7,293.3l-27.9-27.5l0-22.7l28.7,49.7
	C657.1,292.9,656.9,293.1,656.7,293.3z M627.7,264.8l-17-16.8l6.6-24.7l10.4,18.1L627.7,264.8z M617.7,221.9l9.2-34.5
	c0.3,0.1,0.6,0.1,0.9,0.1l-0.1,51.8L617.7,221.9z M621.4,177.9l-34.5-9.2l-9.9-17.1l44.7,25.5C621.6,177.3,621.5,177.6,621.4,177.9z
	 M585.6,168.3l-24.3-6.5l-5.9-22.6l20,11.4L585.6,168.3z M555,137.8l-9.9-37.8c0.3-0.1,0.6-0.2,0.9-0.4l28.4,49.2L555,137.8z
	 M535.6,94.5l-38.5,10.2l-19.5-11.1l57.9,0C535.5,93.9,535.5,94.2,535.6,94.5z M495.7,105.1l-23.6,6.3L454,93.6l21.6,0L495.7,105.1z
	 M453,92.6l-26.2-25.9c0.2-0.2,0.4-0.5,0.5-0.7l46.5,26.6L453,92.6z M414.7,65.1l-47.9,27.4l-56.6,0c0-0.3-0.1-0.6-0.1-0.9
	l104.3-27.3C414.4,64.6,414.5,64.8,414.7,65.1z M299.7,99.5c0.3,0.1,0.5,0.2,0.8,0.3l-9.9,36.2l-17.8,10.2L299.7,99.5z M290.2,137.5
	l-6.5,23.9l-23.1,6.1l11.2-19.5L290.2,137.5z M259.2,167.9l-38,10.1c-0.1-0.3-0.2-0.6-0.3-0.8l49.2-28.2L259.2,167.9z M215.7,187.5
	l10.3,38.2l-11.2,19.6l0.1-57.6C215.1,187.6,215.4,187.6,215.7,187.5z M226.3,227l6.3,23.5l-17.9,18l0-21.3L226.3,227z M213.7,269.5
	L188.2,295c-0.2-0.2-0.5-0.4-0.7-0.6l26.2-45.5L213.7,269.5z M186.6,307.1l26.9,46.6l-0.1,57.3c-0.3,0-0.6,0.1-0.9,0.1l-26.9-103.7
	C186.1,307.4,186.4,307.3,186.6,307.1z M220.9,420.7l36.9,9.7l10.8,18.6l-48-27.5C220.7,421.3,220.8,421,220.9,420.7z M259.2,430.8
	l23.6,6.2l6.4,23.8l-18.9-10.8L259.2,430.8z M289.6,462.2l9.8,36.3c-0.3,0.1-0.6,0.2-0.8,0.4l-27.2-47.1L289.6,462.2z M308.9,504
	l36.6-9.8l18.3,10.5l-54.7,0.2C309,504.6,308.9,504.3,308.9,504z M346.8,493.9l24.4-6.5l17.4,17.3l-22.9,0.1L346.8,493.9z
	 M389.7,505.6l27,26.8c-0.3,0.3-0.5,0.7-0.7,1.1l-48.5-27.8L389.7,505.6z M428.9,533.7l49.1-28.3l56.1-0.2c0,0.3,0.1,0.6,0.1,0.9
	l-104.9,28.5C429.2,534.3,429.1,534,428.9,533.7z M544.6,498.1c-0.3-0.1-0.6-0.3-0.9-0.4l9.6-35.8l18.7-10.8L544.6,498.1z
	 M553.7,460.6l6.3-23.6l24-6.4l-11,18.9L553.7,460.6z M585.4,430.2l35.7-9.5c0.1,0.3,0.2,0.6,0.4,0.8l-46.7,27L585.4,430.2z
	 M626.7,411.1l-9.4-35.7l10.3-17.6l-0.1,53.2C627.3,411,627,411.1,626.7,411.1z M617,374.1l-6.3-24l17-16.9l0,22.7L617,374.1z
	 M628.7,332.2l28-27.9c0.2,0.2,0.5,0.4,0.7,0.5l-28.8,49.3L628.7,332.2z M659.1,291.9c-0.3,0.1-0.6,0.2-0.8,0.4l-29.5-51.1l0.1-53.5
	c0.8-0.1,1.5-0.2,2.2-0.5L659.1,291.9z M622.9,175.4c-0.2,0.3-0.4,0.5-0.6,0.8l-46.1-26.4l-29.3-50.7c0.2-0.2,0.5-0.3,0.7-0.5
	L622.9,175.4z M535.6,91.8c-0.1,0.3-0.1,0.5-0.1,0.8l-59.6,0l-48-27.4c0.1-0.3,0.3-0.6,0.4-0.9L535.6,91.8z M298,98.5
	c0.2,0.2,0.5,0.4,0.8,0.6L271,147.3l-50.7,29c-0.2-0.2-0.3-0.5-0.5-0.7L298,98.5z M212.9,187.5c0.3,0.1,0.5,0.1,0.8,0.1l-0.1,59.3
	l-27,47c-0.3-0.1-0.6-0.3-0.9-0.4L212.9,187.5z M219.5,423.1c0.2-0.2,0.4-0.5,0.5-0.7l49.5,28.4l28,48.6c-0.3,0.2-0.5,0.4-0.7,0.6
	L219.5,423.1z M308.9,506.8c0.1-0.3,0.1-0.6,0.1-0.9l56.5-0.2l50.1,28.7c-0.1,0.3-0.2,0.6-0.3,1L308.9,506.8z M546.2,499.2
	c-0.2-0.2-0.5-0.4-0.7-0.5l28.3-48.5l48.3-27.8c0.2,0.3,0.3,0.5,0.5,0.7L546.2,499.2z M629.6,411.1c-0.3-0.1-0.6-0.1-1-0.1l0.1-54.9
	l29.6-50.8c0.3,0.1,0.5,0.2,0.8,0.3L629.6,411.1z"/>
<radialGradient id="SVGID_1_" cx="424.6237" cy="299.1469" r="211.9603" gradientTransform="matrix(0.9659 -0.2588 0.2588 0.9659 -63.0513 119.3712)" gradientUnits="userSpaceOnUse">
	<stop  offset="0" style="stop-color:#FFFFFF"/>
	<stop  offset="0.3413" style="stop-color:#FFFFFF;stop-opacity:0.979"/>
	<stop  offset="1" style="stop-color:#FFFFFF;stop-opacity:0"/>
</radialGradient>
<circle class="st1" cx="424.5" cy="298.4" r="212"/>
<g>
	<path d="M310.3,278h-4.5c-2.8,0-4.6,0.8-5.5,2.3l-15.4,27.1l-15.2-27.1c-0.9-1.6-2.7-2.3-5.5-2.3h-4.6c-3.5,0-5.2,0.9-5.2,2.8v55.4
		c0,1.8,1.7,2.8,5.2,2.8h2.5c3.5,0,5.2-0.9,5.2-2.8v-35.8l0.3-0.1l12.5,22.4c0.8,1.1,2,1.6,3.5,1.6h2.5c1.5,0,2.7-0.5,3.5-1.6
		l12.5-22.4l0.3,0.1v35.8c0,1.8,1.7,2.8,5.2,2.8h2.5c3.5,0,5.2-0.9,5.2-2.8v-55.4C315.5,279,313.8,278,310.3,278z"/>
	<path d="M418.7,278.2h-40.9c-1.7,0-2.6,1.4-2.6,4.3v2.7c0,2.9,0.9,4.3,2.6,4.3h13.8v46.6c0,1.8,1.7,2.8,5.2,2.8h3
		c3.5,0,5.2-0.9,5.2-2.8v-46.6h13.8c1.7,0,2.6-1.4,2.6-4.3v-2.7C421.3,279.7,420.5,278.2,418.7,278.2z"/>
	<path d="M466,316.6c-0.8-1.8-1.7-3.5-2.9-5.1c-1.2-1.5-2.3-2.5-3.4-2.9v-0.3c3.1-1.2,5.6-2.9,7.4-5.3c1.8-2.4,2.7-5.2,2.7-8.4
		c0-10.8-7.2-16.3-21.6-16.3h-16.9c-2.3,0-3.5,1.2-3.5,3.5v54.5c0,1.8,1.7,2.8,5.2,2.8h2.9c3.5,0,5.2-0.9,5.2-2.8v-21.1h3.4
		c2.6,0,4.5,0.4,5.6,1.2c1.1,0.8,2.2,2.1,3.2,4l6.8,16.9c0.5,1.2,2.1,1.8,5,1.8h3.5c3.5,0,5.2-0.6,5.2-1.7c0-0.3-0.1-0.9-0.4-1.6
		L466,316.6z M454.2,301.4c-1.3,1.4-2.9,2.2-4.7,2.2h-8.2v-14h7.6c2.3,0,4,0.6,5.3,1.8c1.3,1.2,1.9,2.8,1.9,4.8
		C456.2,298.2,455.5,300,454.2,301.4z"/>
	<path d="M488.5,278h-3c-3.5,0-5.2,1-5.2,2.9v55.4c0,1.9,1.7,2.9,5.2,2.9h3c3.5,0,5.2-1,5.2-2.9v-55.4
		C493.7,278.9,491.9,278,488.5,278z"/>
	<path d="M545.8,324.7c-0.2,0-1,0.3-2.3,0.9c-3.8,1.7-7.8,2.6-11.9,2.6c-9.9,0-14.8-6.5-14.8-19.6c0-13.1,5-19.6,15-19.6
		c4.3,0,7.9,0.7,10.9,2.1c1,0.5,1.6,0.7,1.8,0.7c1,0,2.2-1,3.6-3.1c1.4-2.1,2-3.8,2-5c0-1.7-2-3.2-5.9-4.3c-3.9-1.2-8-1.7-12.2-1.7
		c-19.3,0-28.9,10.3-28.9,30.8c0,10.7,2.3,18.5,7,23.6c4.6,5,11.8,7.6,21.5,7.6c4.3,0,8.6-0.6,12.9-1.9c4.3-1.3,6.4-3.1,6.4-5.4
		c0-1-0.5-2.6-1.6-4.5C548.1,325.7,547,324.7,545.8,324.7z"/>
	<path d="M583.5,289.5h10.4c1.7,0,2.6-1.4,2.6-4.3v-2.7c0-2.9-0.9-4.3-2.6-4.3h-31.7c-2.3,0-3.5,1.2-3.5,3.5v7.9h13.3H583.5z"/>
	<path d="M579.2,313.4h12.3c1.7,0,2.6-1.4,2.6-4.3v-2.7c0-2.9-0.9-4.3-2.6-4.3h-32.8v11.3h13.3H579.2z"/>
	<path d="M594,327.5h-35.2v7.9c0,2.3,1.2,3.5,3.5,3.5H594c1.7,0,2.6-1.4,2.6-4.3v-2.7C596.6,328.9,595.7,327.5,594,327.5z"/>
	<path d="M355.2,279.9c-0.5-1.2-2.1-1.8-4.9-1.8h-4.5c-2.8,0-4.5,0.6-4.9,1.8l-19,55.6c-0.2,0.8-0.3,1.3-0.3,1.6
		c0,1.3,1.8,1.9,5.3,1.9h3.5c2.3,0,3.6-0.6,4-1.8l3.5-10.6l3.7-11.4c0,0,5.9-18.2,6.4-20.9h0.3l6.2,20.9l3.7,11.4l3.5,10.6
		c0.4,1.2,2,1.8,4.8,1.8h3.8c2.9,0,4.3-0.6,4.3-1.9c0-0.5-0.1-1-0.3-1.6L355.2,279.9z"/>
</g>
</svg>
