<?xml version="1.0" encoding="utf-8"?>
<!-- Generator: Adobe Illustrator 16.0.0, SVG Export Plug-In . SVG Version: 6.00 Build 0)  -->
<!DOCTYPE svg PUBLIC "-//W3C//DTD SVG 1.1//EN" "http://www.w3.org/Graphics/SVG/1.1/DTD/svg11.dtd">
<svg version="1.1" id="Calque_1" xmlns="http://www.w3.org/2000/svg" xmlns:xlink="http://www.w3.org/1999/xlink" x="0px" y="0px"
	 width="841.889px" height="1190.551px" viewBox="0 0 841.889 1190.551" enable-background="new 0 0 841.889 1190.551"
	 xml:space="preserve">
<path fill="#DADADA" d="M667.791,592.725c-1.6-2.8-4.8-4.101-7.699-3.5l-28.1-104.999l0,0c3.5-2,4.699-6.5,2.699-10
	s-6.5-4.699-10-2.699c-0.399,0.199-0.8,0.5-1.1,0.8l-75.399-76.699c2-2.301,2.5-5.7,0.9-8.5c-2-3.5-6.5-4.7-10-2.7
	c-1.6,0.9-2.7,2.4-3.3,4l-107.398-27.5c0.3-1.699,0.1-3.399-0.9-5c-2-3.5-6.5-4.699-10-2.699c-2.8,1.6-4.1,4.699-3.5,7.699
	l-104.198,27.3c-0.2-0.5-0.4-0.899-0.601-1.3c-2-3.5-6.5-4.7-10-2.7c-3.499,2-4.699,6.5-2.699,10c0.2,0.4,0.5,0.8,0.8,1.1
	l-78.199,77.1c-2.3-2-5.699-2.5-8.5-0.899c-3.5,2-4.699,6.499-2.699,9.999c0.899,1.601,2.399,2.7,4,3.301l-27.2,106.099
	c-1.7-0.301-3.399-0.101-5,0.899c-3.5,2-4.7,6.5-2.7,10c1.601,2.8,4.7,4.1,7.7,3.5l26.899,103.698c-0.5,0.2-0.899,0.4-1.3,0.601
	c-3.5,2-4.7,6.5-2.7,10s6.5,4.7,10,2.7c0.4-0.2,0.801-0.5,1.2-0.801l77.299,76.8c-2,2.3-2.399,5.699-0.8,8.399c2,3.5,6.5,4.7,10,2.7
	c1.6-0.9,2.7-2.3,3.3-4l106.499,28.6c-0.101,1.5,0.199,3,0.899,4.3c2,3.5,6.5,4.7,10,2.7c2.8-1.601,4.1-4.8,3.5-7.8l104.898-28.5
	c0.101,0.4,0.301,0.9,0.601,1.3c2,3.5,6.5,4.7,10,2.7c3.499-2,4.699-6.5,2.699-10c-0.2-0.399-0.5-0.8-0.8-1.1l76.399-76.1
	c2.3,2,5.7,2.4,8.5,0.801c3.5-2,4.699-6.5,2.7-10c-0.9-1.601-2.301-2.7-3.9-3.2l29.399-105.599c1.7,0.399,3.5,0.1,5.101-0.8
	C668.591,600.725,669.791,596.225,667.791,592.725z M586.092,726.624l5.9-10.2h28.699c0,0.3,0.101,0.6,0.101,0.9L586.092,726.624z
	 M428.395,830.522c-0.2-0.3-0.4-0.5-0.601-0.8l26.7-26.6l21.5-0.101L428.395,830.522z M308.596,800.623c-0.1-0.3-0.2-0.601-0.3-0.8
	l25.499-14.601l10.4,6L308.596,800.623z M258.496,466.726l-6.199,10.7h-30.8c0-0.3-0.1-0.6-0.1-0.899L258.496,466.726z
	 M415.195,363.628c0.2,0.3,0.4,0.5,0.601,0.8l-25.8,25.7h-21.3L415.195,363.628z M535.793,393.128c0.1,0.3,0.2,0.6,0.4,0.899
	l-26.8,15.4l-11.101-6.3L535.793,393.128z M404.395,803.222h9.1l6.601,24.6c-0.4,0.101-0.7,0.3-1.101,0.5L404.395,803.222z
	 M307.796,798.923c-0.2-0.3-0.4-0.5-0.5-0.7l18-17.899l7.499,4.3L307.796,798.923z M438.395,390.128h-8.4l-6.399-23.7
	c0.3-0.1,0.6-0.2,0.8-0.399L438.395,390.128z M536.694,394.827c0.199,0.2,0.3,0.5,0.5,0.7l-19.101,18.9l-7.699-4.4L536.694,394.827z
	 M628.692,604.625v-7.6l25.5-0.1c0,0.3,0.1,0.6,0.1,0.899L628.692,604.625z M510.594,784.222l7.399-4.3l17.8,17.6
	c-0.2,0.2-0.4,0.5-0.6,0.7L510.594,784.222z M220.898,713.624c-0.101-0.3-0.2-0.601-0.301-0.8l21.4-12.3l3.699,6.5L220.898,713.624z
	 M213.597,590.525v7l-22.899,0.1c0-0.3-0.1-0.6-0.1-0.899L213.597,590.525z M333.896,408.927l-7.6,4.3l-17.9-17.9
	c0.2-0.199,0.4-0.5,0.601-0.699L333.896,408.927z M417.994,366.128c0.3,0.1,0.601,0.2,0.9,0.3l-6.4,23.7h-8.399L417.994,366.128z
	 M541.993,479.226l-0.101,21.5l-30.699,8.3l8.3-30.6h21.6L541.993,479.226z M621.392,480.327c0.101,0.3,0.2,0.5,0.3,0.8
	l-19.699,11.3l-3.4-6L621.392,480.327z M654.192,595.926l-25.5,0.1v-7.8l25.6,6.8C654.291,595.325,654.192,595.625,654.192,595.926z
	 M627.692,596.025l-30.499,0.1l0,0l4.1-15.199l26.5,7L627.692,596.025z M596.592,594.125l-4.1-15.499l7.7,2L596.592,594.125z
	 M596.092,596.125L596.092,596.125l-35.699,0.2l13.1-22.699l17.9,4.8L596.092,596.125z M536.593,796.823l-17.6-17.4l6.399-3.7
	l11.9,20.601C536.993,796.423,536.793,796.623,536.593,796.823z M518.194,778.623l-19.7-19.5l10.9-10.899l15.399,26.499
	L518.194,778.623z M497.894,758.523l-5.8-5.7l15.8-4.2L497.894,758.523z M491.293,751.924l-13.299-13.2l12.899-22.3h0.1l17.8,30.8
	L491.293,751.924z M422.895,827.322l-0.101-24.199h7.601l-6.601,24.399C423.494,827.423,423.195,827.423,422.895,827.322z
	 M422.794,802.123l-0.1-30.6l15.2,4l-7.2,26.6H422.794z M424.095,770.823l16.199-4.3l-2.2,8L424.095,770.823z M422.695,770.223
	l-0.1-35l22.699,12.899l-4.7,17.3L422.695,770.223z M220.097,711.924c-0.199-0.2-0.3-0.5-0.5-0.7l18.2-17.999l3.7,6.399
	L220.097,711.924z M238.497,692.524l19.699-19.5l10.9,10.8l-26.8,15.399L238.497,692.524z M258.897,672.224l5.6-5.5l4.101,15.1
	L258.897,672.224z M265.297,665.925l13.1-13l22.199,12.699l-30.6,17.601L265.297,665.925z M190.698,598.625l22.899-0.1v7.1
	l-22.999-6.1C190.698,599.225,190.698,598.926,190.698,598.625z M214.597,598.525l31-0.1l-4,14.6l-27-7.101V598.525z
	 M246.397,599.325l4.3,16.2l-8.199-2.2L246.397,599.325z M247.197,598.426l34.7-0.101l-12.8,22l-17.2-4.601L247.197,598.426z
	 M307.696,396.128l17.7,17.699l-6.399,3.601l-12.101-20.8C307.196,396.527,307.396,396.327,307.696,396.128z M326.096,414.527
	l19.8,19.8l-10.8,10.9l-15.601-26.9L326.096,414.527z M346.696,435.127l5.7,5.7l-15.4,4.101L346.696,435.127z M353.095,441.627
	l12.5,12.5l-12.699,21.9l-17.3-29.8L353.095,441.627z M378.795,434.827l18.699,10.7l-8.3,30.8l-22.3-22.3l11-19L378.795,434.827z
	 M420.794,366.828l0.101,23.3h-7.3l6.3-23.4C420.095,366.828,420.395,366.828,420.794,366.828z M420.794,391.128l0.101,30.6l-14.8-4
	l7.2-26.6H420.794z M420.494,422.628l-17,4.499l2.301-8.5L420.494,422.628z M420.895,423.627l0.1,34.2l-22.3-12.8l4.5-16.7
	L420.895,423.627z M541.593,596.325l-31.699,0.101l30.6-30.4l1.199,2L541.593,596.325z M542.693,569.725l15.4,26.5l-15.5,0.1
	L542.693,569.725z M490.293,715.424h-35.1l0,0l26.4-15.2l8.699,15.101V715.424z M301.596,630.025L301.596,630.025v34.999
	l-22.399-12.8L301.596,630.025z M278.296,651.724l-19.8-11.3l11-18.899l31,8.199L278.296,651.724z M332.896,512.427l1.899-1.101
	l11.301,41.899l-27.601-15.899L332.896,512.427z M317.596,536.826l-13.5-7.7l27-15.6L317.596,536.826z M420.994,478.427
	l0.101,29.699l-29.6-29.499l0.3-0.2H420.994z M393.595,477.427l27.399-15.8v15.8H393.595z M506.993,508.326l0.9,1.601l-40.7,10.999
	l15.5-26.499L506.993,508.326z M483.194,493.526l7.6-13l15.2,26.101L483.194,493.526z M539.993,565.126l-31,30.899l-16.8-16.8
	l6.9-25.399l40.699,10.8L539.993,565.126z M509.293,512.226l-10.699,39.6l-1,0.6l-25.3-6.7l-6.2-22.899l0.4-0.7l41.999-11.3
	L509.293,512.226z M509.394,510.526l0.3-0.1l-0.101,0.399L509.394,510.526z M357.495,598.025h0.7l8.1,29.899l0,0l-13.3-13.1
	L357.495,598.025z M352.095,614.025l-15.999-15.9l20.3-0.1L352.095,614.025z M421.195,533.226v0.1l-30.1,8.1l12.899-12.8
	L421.195,533.226z M404.795,527.926l16.3-16.1l0.1,20.4L404.795,527.926z M453.294,541.826l0.4,0.399l-31.3,53.5l0,0l-0.2-61.6
	l1.1-0.3L453.294,541.826z M425.195,533.326l15.399-4.2l11.2,11.2L425.195,533.326z M485.694,599.125l-7.399,27.4l-1.7,1.699
	l-52.899-30.399l61.699-0.2L485.694,599.125z M477.794,628.425l-0.101,0.4l-0.2-0.101L477.794,628.425z M420.695,597.825h0.4
	l-31.3,53.499l-22.2-21.999l-0.3-0.9L420.695,597.825z M367.095,627.425l-7.899-29.399l59.399-0.2L367.095,627.425z
	 M366.795,629.825l4.7,17.6l-25.5-6.7l20.1-11.5L366.795,629.825z M368.196,631.224l21.1,20.9l-16.6-4.4L368.196,631.224z
	 M388.795,653.125l-10.1,17.3l-5.801-21.5L388.795,653.125z M389.795,653.324l0.899,0.2l11.7,11.601l-23,6.199L389.795,653.324z
	 M392.595,654.125l25.699,6.8l-14.8,4L392.595,654.125z M420.195,661.425l1.2,0.3l0.1,21l-17.199-17.101L420.195,661.425z
	 M420.195,660.324l-29.1-7.699l-0.6-0.601l30.799-52.599l0.101,60.599L420.195,660.324z M422.294,598.225l0.3,0.2l30.7,52.999
	l-0.2,0.2l-30.699,8.199L422.294,598.225z M424.395,599.426l51.499,29.6l-21.8,21.6L424.395,599.426z M422.895,596.825
	L422.895,596.825l0.2-0.399l53.599-30.8l8.4,30.899L422.895,596.825z M424.095,594.725l30.299-51.8l21.8,21.8L424.095,594.725z
	 M475.894,563.025l-20.7-20.699l16.301,4.3L475.894,563.025z M472.594,546.926l23.699,6.3l-18.999,10.9L472.594,546.926z
	 M455.294,541.326l10.1-17.2l5.8,21.4L455.294,541.326z M421.294,594.025l-29.899-51.6l29.7-8L421.294,594.025z M390.395,540.725
	l-10.7-18.399l23.101,6.1L390.395,540.725z M390.395,542.725l30.899,53.3v0.2l-0.199,0.1l-54.1-31.1l22.5-22.3L390.395,542.725z
	 M366.295,566.025l53.6,30.8l-60.999,0.2l-0.601-2.2l7.7-28.499L366.295,566.025z M357.896,597.025h-0.2l0.1-0.3L357.896,597.025z
	 M365.295,628.425l-19,10.9l6.3-23.5L365.295,628.425z M371.795,648.524l6.2,23l-0.101,0.1l-43.399,11.601l11.2-41.6
	L371.795,648.524z M403.195,665.925l17.8,17.699l-30.499,30.399l-11.2-41.599L403.195,665.925z M422.494,662.024l16,4.2
	l-15.899,15.8L422.494,662.024z M422.494,660.925v-0.2l29.3-7.8l-12.5,12.399L422.494,660.925z M453.695,652.425l0.3-0.101l11.6,20
	l-25.199-6.7L453.695,652.425z M454.894,652.125l17.7-4.7l-6.5,24L454.894,652.125z M455.094,651.024l21.7-21.6l0.7,0.4l-4.4,16.399
	L455.094,651.024z M478.294,630.325l17.199,9.899l-21.399,5.7L478.294,630.325z M478.594,629.425l0.6-2.3l11.1-11l6.5,23.899
	L478.594,629.425z M479.694,625.125l6.5-24l3.8,13.8L479.694,625.125z M486.793,599.125l0.4-1.6l20.3-0.1l-16.7,16.6
	L486.793,599.125z M487.493,596.525l4.4-16.2l16.1,16.101L487.493,596.525z M486.394,596.525h-0.4l-8.199-30.199l13.199,13.199
	L486.394,596.525z M477.894,564.926l19.8-11.4l0.4,0.101l-6.7,24.8L477.894,564.926z M464.994,522.726l-10.7,18.3l-0.5-0.101l-12-12
	l23.2-6.3V522.726z M440.994,528.026l-18-18l30.399-30.1l11.3,41.699L440.994,528.026z M439.794,528.326l-16.5,4.5l-1.1-0.3
	l-0.101-21.7l0.101-0.1L439.794,528.326z M421.095,510.427l-17.4,17.199l-24.699-6.5l-0.601-1l10.8-40.199l1.3-0.8l30.5,30.499
	L421.095,510.427z M378.395,521.926l11.3,19.5l-0.6,0.601l-17.8,4.8l6.7-25L378.395,521.926z M387.695,543.526l-21.1,20.899
	l4.4-16.399L387.695,543.526z M365.495,564.326l-17.6-10.101l21.999-5.899L365.495,564.326z M365.196,565.326l-0.101,0.399
	l-11.5,11.4l-5.899-21.9L365.196,565.326z M364.595,567.725l-6.8,25.2l-3.899-14.601L364.595,567.725z M357.295,594.825l-0.6,2.2
	l-21.6,0.1l-0.101-0.1l18.1-17.899L357.295,594.825z M334.696,598.125l17.1,17l-6.699,25l-0.5,0.3l-41.6-11l-0.301-0.5l31.1-30.8
	H334.696z M303.696,630.525l39.7,10.499l-25.1,14.4L303.696,630.525z M317.396,656.024l-14.8,8.5l0.1-33.8L317.396,656.024z
	 M344.696,641.425l-11,40.699l-15-25.699L344.696,641.425z M377.196,672.925l-15.4,26.399l-26.6-15.2L377.196,672.925z
	 M378.295,672.925l11.3,41.899l-0.2,0.199l-26.699-15.199L378.295,672.925z M390.695,715.124l30.8-30.7l0.101,31h-30.8
	L390.695,715.124z M422.494,685.124l30.5,30.3h-30.5V685.124z M451.494,716.424l-28.8,16.5v-16.5H451.494z M453.994,715.023
	l-31.5-31.199v-0.3l17-16.9l26,6.9l-11.2,41.399L453.994,715.023z M466.494,674.024l14.699,25.399l-25.6,14.7L466.494,674.024z
	 M467.594,673.925l39.6,10.499l-25.2,14.5L467.594,673.925z M508.394,683.724l-41.6-11v-0.101l6.899-25.6l22.9-6.1l0.399,0.3
	l11.5,42.399L508.394,683.724z M491.094,615.225l17.8-17.7l0,0l30.899,30.899l-42,11.2L491.094,615.225z M499.293,552.926l0.101-0.4
	l24.999-14.299l14.601,25.199L499.293,552.926z M499.793,551.225l10.2-37.699l13.899,23.899L499.793,551.225z M510.394,512.126
	l0.399-1.6l29.9,17.2l-16,9.199L510.394,512.126z M508.894,509.626l-0.2-0.3l0.5,0.3H508.894z M465.794,521.326h-0.2l-11.5-42.3
	l0.6-0.6h0.101l27,15.5L465.794,521.326z M453.094,478.726l-30.8,30.5l-0.1-0.101l-0.1-30.699h30.899L453.094,478.726z
	 M389.795,478.427l-0.2,0.1v-0.1H389.795z M388.495,479.226l-25.2,14.6l-8.899-15.399h34.299L388.495,479.226z M388.095,480.627
	l-10.3,38.3l-14-24.2L388.095,480.627z M377.395,520.226l-0.1,0.399l-40.1-10.6l25.699-14.8L377.395,520.226z M376.995,521.626
	l-6.9,25.6l-22.899,6.2l-11.5-42.6l0.2-0.1L376.995,521.626z M334.596,510.326l-0.601,0.4l0.3-0.5L334.596,510.326z
	 M352.795,578.025l-18.5,18.3l-30.399-30.1l42.6-11.5L352.795,578.025z M333.596,597.025l-0.101,0.1l-30.699,0.101l0.1-30.7
	L333.596,597.025z M332.396,598.125l-29.7,29.4l0.101-29.3L332.396,598.125z M301.696,627.025l-16.699-28.7l16.8-0.1
	L301.696,627.025z M317.896,656.824l15.2,26.1l-30.4-17.3L317.896,656.824z M361.295,700.124l-8.5,14.5l-16.899-29L361.295,700.124z
	 M362.095,700.624l26,14.8h-34.6L362.095,700.624z M421.595,716.424v17l-29.8-17H421.595z M453.494,716.424h0.5l-8.3,30.699
	l-22.9-12.999L453.494,716.424z M454.794,717.124l22,21.8l-11.3,19.5l-19-10.801L454.794,717.124z M455.494,716.424h34.299
	l-12.499,21.6L455.494,716.424z M482.493,699.723l25.3-14.499l-16.8,29.1L482.493,699.723z M509.394,682.524l-11-40.6l25.899,14.899
	L509.394,682.524z M525.093,657.324l14.7,8.4l-29.2,16.8L525.093,657.324z M498.094,640.625l42.1-11.2l-15.4,26.6L498.094,640.625z
	 M540.893,628.025l-30.499-30.6l31.199-0.101l-0.1,29.7L540.893,628.025z M541.194,565.326l0.199-0.2l0.3,0.1v0.9L541.194,565.326z
	 M542.693,563.826l22.3-22.2l19.4,11.1l-11.4,19.7l-30.399-8L542.693,563.826z M542.693,562.426l0.101-33.6l21.3,12.2
	L542.693,562.426z M541.693,563.426l-0.6,0.6l-0.7-0.199l-15.1-26.101l16.5-9.499h0.1L541.693,563.426z M541.693,527.126
	l-29.899-17.199l30.1-8.101L541.693,527.126L541.693,527.126z M507.694,507.626l-16.3-28.1l0.6-1.1h26.4l-8.3,30.6L507.694,507.626z
	 M490.894,478.526L490.894,478.526L490.894,478.526L490.894,478.526z M490.293,479.526l-7.899,13.5l-25.5-14.6h32.7L490.293,479.526
	z M452.695,477.427h-30.7v-16.399l1.3-0.801l29.3,16.801L452.695,477.427z M421.994,459.927v-0.3l0.3,0.2L421.994,459.927z
	 M420.994,460.427l-29.399,17h-1.2l-0.3-0.3l8.399-31.1l22.5,12.899V460.427z M397.795,444.527l-17.601-10.1l21.9-5.801
	L397.795,444.527z M366.196,453.227l-11.9-11.9l22.3-5.899L366.196,453.227z M366.395,454.827l22.5,22.6l0,0h-35.199l-0.2-0.399
	L366.395,454.827z M353.196,478.427l9.2,15.899l-26.601,15.3l-0.399-0.1l-0.2-0.9l17.5-30.199H353.196z M334.795,507.226l-7.8-28.8
	h24.5L334.795,507.226z M334.096,508.526l-0.301,0.6l-30.699-8.1l0.1-22.199l0.4-0.4h22.5L334.096,508.526z M333.196,510.026l-1,1.7
	l-29.1,16.8l-0.2-0.101l0.101-26.399L333.196,510.026z M303.096,529.626l14,8l-14.2,24.5l0.101-32.399L303.096,529.626z
	 M317.995,538.226l27.3,15.699l-42.199,11.4l-0.2-0.2v-1L317.995,538.226z M301.896,566.725l-0.1,30.6l-17.399,0.101l-0.4-0.801
	l17.3-29.799L301.896,566.725z M283.796,598.325l17.7,30.399l-0.2,0.2l-31.3-8.3l13-22.3H283.796z M268.496,621.224l-10.399,17.9
	l-6-22.2L268.496,621.224z M277.496,652.425l-12.5,12.399l-6.199-22.999L277.496,652.425z M332.596,683.824l-30,8l0.1-25.1
	L332.596,683.824z M333.096,684.724l-8.3,30.799h-22.3l-0.101-0.1l0.101-22.6L333.096,684.724z M334.096,684.724L334.096,684.724
	l17.899,30.799h-26.199L334.096,684.724z M387.995,716.424l-21.601,21.5l-12.499-21.5H387.995z M389.395,716.424h0.5l0.3,0.2
	l8.2,30.399l-20,11.5l-11.399-19.6L389.395,716.424z M391.295,717.324l29.399,16.8l-21.6,12.399L391.295,717.324z M446.195,748.623
	l18.3,10.4l-22.8,6.1L446.195,748.623z M477.494,739.624l12.699,12.6l-23.6,6.3L477.494,739.624z M491.594,715.324l17.5-30.2
	l8.199,30.399h-25.699V715.324z M510.094,685.224l31.1,8.199l-0.101,22l0,0h-22.8L510.094,685.224z M509.793,684.124
	L509.793,684.124l31-17.8l0.6,0.3l-0.1,25.8L509.793,684.124z M540.793,665.124l-15.2-8.699l15.5-26.8l0.3,0.3l-0.1,34.8
	L540.793,665.124z M542.493,631.025l21.1,21.1l-21.2,12.199L542.493,631.025z M542.493,629.525v-0.801l29.799-8l11.5,19.7
	l-19.3,11.1L542.493,629.525z M542.493,627.724v-0.399l16.8-29l12.499,21.5L542.493,627.724z M542.493,625.325l0.1-28l16.1-0.1l0,0
	L542.493,625.325z M559.193,596.325l-16.5-28.499v-2.301l29.9,7.9L559.193,596.325L559.193,596.325z M573.992,572.725l11-19
	l6.2,23.5L573.992,572.725z M565.693,540.926l12.6-12.5l6.101,23.3L565.693,540.926z M564.893,540.326l-22.1-12.7v-0.1l30.5-17.5
	l0.399,0.4l4.4,16.699L564.893,540.326z M575.093,511.927l9.199,9.1l-5.399,5.399L575.093,511.927z M574.593,510.026l-0.101-0.6
	l27.3-15.7l3.6,6.3l-20.399,20.3L574.593,510.026z M602.492,493.326l19.699-11.3c0.2,0.301,0.4,0.5,0.5,0.7l-16.699,16.6
	L602.492,493.326z M601.193,492.927l-27,15.5l-3.8-14.4l27.199-7.399L601.193,492.927z M573.193,508.626l-12.2-11.999l8.4-2.301
	L573.193,508.626z M572.492,509.427l-29.699,17.1l0.1-25l17-4.6L572.492,509.427z M542.893,500.427l0.101-20.2l16.1,15.9
	L542.893,500.427z M519.793,477.427l4.2-15.8l16,15.8H519.793z M518.694,477.427h-26.1l17.3-29.699l13.199,13.1L518.694,477.427z
	 M510.493,446.827L510.493,446.827l15.399,4.1l-2.399,8.8L510.493,446.827z M511.093,445.927l15.101-25.8l7,4l-7,25.9
	L511.093,445.927z M526.694,419.227l12.8-22c0.3,0.1,0.6,0.3,0.899,0.4l-6.899,25.5L526.694,419.227z M538.593,396.727l-12.8,22
	l-6.7-3.9l18.9-18.699C538.093,396.427,538.393,396.628,538.593,396.727z M525.293,419.627l-15.199,26l-1.101-0.3l-10.399-10.2
	l19.699-19.5L525.293,419.627z M506.993,444.827l-14.399-3.899l5.199-5.2L506.993,444.827z M508.493,446.227l0.8,0.8l-17.8,30.399
	h-1.3l-12.5-21.6l14.2-14L508.493,446.227z M489.094,477.427h-33.2l21.101-20.899L489.094,477.427z M454.695,477.127l-1.2-0.7
	l-7.9-29l19.5-11.3l11.3,19.5L454.695,477.127z M452.195,475.726l-28-16l20.399-11.8L452.195,475.726z M423.294,459.127l-1.3-0.7
	l-0.1-34.999l0.6-0.101l16.8,4.5l5.2,19.2L423.294,459.127z M424.395,422.727l12.6-3.3l2,7.199L424.395,422.727z M422.395,422.128
	l-0.601-0.2l-0.1-30.8h7.5l7.399,27.199L422.395,422.128z M421.794,390.128l-0.1-23.3c0.3,0,0.6-0.101,0.899-0.101l6.4,23.4H421.794
	z M412.195,391.128l-7.1,26.3l-14.7-3.9l13-22.399H412.195z M404.795,418.427l-2.4,9l-23.399,6.199l-0.2-0.1l11.1-19.1
	L404.795,418.427z M377.295,434.127l-23.899,6.301l-6.101-6.101l11.2-11.3l18.8,10.8V434.127z M346.596,433.727l-19.601-19.7
	l7.9-4.5l22.8,13.101L346.596,433.727z M305.196,397.527c0.301-0.1,0.601-0.2,0.801-0.399l12.1,20.8l-6.4,3.7L305.196,397.527z
	 M318.596,418.827l15.5,26.8l-14.9,4l-7.199-26.999L318.596,418.827z M333.596,446.827l-11.9,11.899l-2.2-8.199L333.596,446.827z
	 M334.896,446.927l17.5,30.101l-0.2,0.399h-25.399l-4.7-17.6L334.896,446.927z M325.696,477.427h-21.3l16.7-16.8L325.696,477.427z
	 M302.096,500.726l-16.399-4.3l16.499-16.5L302.096,500.726z M301.996,501.726l-0.101,26.1l-30.299-17.399l13.199-13.2
	L301.996,501.726z M270.797,509.726l4.199-15.2l8.7,2.3L270.797,509.726z M269.897,509.427l-26.2-15l4-7l26.3,7L269.897,509.427z
	 M242.897,493.826l-22.1-12.699c0.101-0.3,0.2-0.601,0.3-0.9l25.6,6.8L242.897,493.826z M220.297,482.026l22.1,12.7l-3.8,6.6
	l-18.8-18.6C219.997,482.526,220.198,482.327,220.297,482.026z M243.297,495.226l26.399,15.2l-0.2,0.8l-10.5,10.399l-19.699-19.499
	L243.297,495.226z M268.897,513.126l-3.9,14.4l-5.199-5.2L268.897,513.126z M270.297,511.726l0.6-0.601l31.1,17.9v0.2
	l-22.399,12.899l-13.9-13.7L270.297,511.726z M301.996,530.326l-0.101,33.5l-0.1,0.199l-21.399-21.199L301.996,530.326z
	 M301.296,564.926l-0.601,1l-29.799,8.1l-11.2-19.199l19.9-11.5L301.296,564.926z M299.896,567.225l-16.499,28.399l-12.101-20.699
	L299.896,567.225z M282.796,596.625l-0.399,0.7l-35.5,0.101l0,0l4.7-17.101l18.7-5.1L282.796,596.625z M246.397,595.525l-3.5-12.899
	l7.5-2L246.397,595.525z M245.897,597.426L245.897,597.426l-31.199,0.199v-7.3l27.3-7.399L245.897,597.426z M190.398,600.525
	l23.3,6.2v8.1l-23.7-13.5C190.198,601.125,190.298,600.825,190.398,600.525z M214.597,606.925l26.7,7.101l-3.9,14.399l-22.8-13
	V606.925z M242.297,614.325l8.7,2.3l6.199,23.1l-18.899-10.8L242.297,614.325z M264.197,665.624l-6,6l-11.3-11.199l10.9-18.7
	L264.197,665.624z M257.496,672.224l-19.499,19.399l-4.601-7.899l13-22.4L257.496,672.224z M237.198,692.324l-18.4,18.2
	c-0.2-0.2-0.5-0.4-0.7-0.601l14.7-25.3L237.198,692.324z M242.797,700.024l26.6-15.3l4,14.899l-26.7,7.1L242.797,700.024z
	 M270.496,685.224l12.101,11.999l-8.301,2.2L270.496,685.224z M270.697,684.024l30.899-17.7l-0.1,25.9l-17.8,4.8L270.697,684.024z
	 M301.496,693.124l-0.101,21.3l-16.899-16.8L301.496,693.124z M324.495,716.424l-4.399,16.399l-16.6-16.399H324.495z
	 M325.596,716.424h26.199l-17.8,30.3l-13.1-13L325.596,716.424z M332.696,746.723l-14.3-3.8l2.2-8.2L332.696,746.723z
	 M333.295,747.924l-15.699,26.799l-6.8-3.899l7.3-26.899L333.295,747.924z M317.096,775.623l-12.1,20.899
	c-0.301-0.1-0.601-0.3-0.9-0.399l6.5-24.2L317.096,775.623z M305.796,797.022l12.199-20.8l6.301,3.601l-17.8,17.8
	C306.296,797.323,306.096,797.123,305.796,797.022z M318.495,775.323l15.7-26.899l10.9,10.8l-20,19.899L318.495,775.323z
	 M335.995,748.723l15.5,4.1l-5.7,5.601L335.995,748.723z M334.795,747.323l17.9-30.699l12.8,22l-13.3,13.199L334.795,747.323z
	 M366.095,739.624l11,18.899l-23.699-6.2L366.095,739.624z M398.494,748.023l4.7,17.399l-23.899-6.3L398.494,748.023z
	 M399.395,747.424l22.2-12.8l0.1,35.499l-17.399-4.6L399.395,747.424z M420.195,770.923l-13.5,3.601l-2.1-7.7L420.195,770.923z
	 M421.695,771.523l0.1,30.699h-7.6l-7.2-26.699L421.695,771.523z M421.794,803.123l0.101,24.199c-0.3,0-0.601,0.101-0.9,0.101
	l-6.5-24.3H421.794z M424.794,827.722l6.7-24.6h8.2l-14.4,24.8C425.094,827.923,424.994,827.822,424.794,827.722z M431.695,802.123
	l7.1-26.3l14.4,3.8l-13,22.5H431.695z M439.094,774.823l2.301-8.6l23.1-6.2l-10.8,18.6L439.094,774.823z M490.993,753.023l6.2,6.2
	l-11.1,11l-19-10.8L490.993,753.023z M497.894,759.923l19.5,19.3l-7.7,4.4l-22.7-12.899L497.894,759.923z M538.993,795.423
	c-0.3,0.1-0.601,0.2-0.8,0.4l-11.9-20.601l6.3-3.6L538.993,795.423z M525.793,774.323l-15.3-26.5l14.6-3.899l7.2,26.6
	L525.793,774.323z M511.293,746.623l11.4-11.3l2.1,7.7L511.293,746.623z M509.694,746.723l-17.5-30.2h25.3l4.8,17.7L509.694,746.723
	z M518.593,716.424h21.5l-17,16.899L518.593,716.424z M542.193,693.724l16.4,4.3l-16.4,16.399V693.724z M542.293,692.724l0.1-25.5
	l30,17.199l-12.9,12.8L542.293,692.724z M571.992,686.124l-3.6,13.4l-7.8-2.101L571.992,686.124z M573.292,685.024l26.9,15.5
	l-3.8,6.5l-27-7.2L573.292,685.024z M601.092,700.924l20.4,11.7c-0.101,0.3-0.2,0.6-0.301,0.899l-23.799-6.3L601.092,700.924z
	 M621.992,711.824l-20.4-11.7l3.7-6.3l17.3,17.3C622.392,711.324,622.192,711.624,621.992,711.824z M600.693,699.624l-26.8-15.399
	l10.899-10.8l19.7,19.699L600.693,699.624z M573.893,682.824l4.3-16.1l5.9,5.899L573.893,682.824z M572.693,683.524l-30.399-17.5
	v-0.6l21.899-12.601l13.1,13.101L572.693,683.524z M565.193,652.324l18.8-10.8l-6.2,23.3L565.193,652.324z M573.292,620.525
	l17.601-4.7l-6.4,23.899L573.292,620.525z M572.693,619.625l-12.899-22.3l0,0l35.999-0.1l-4.7,17.5L572.693,619.625z
	 M596.592,598.025l3.7,14.2l-8.1,2.199L596.592,598.025z M597.393,597.125l30.299-0.1v7.899l-26.399,7L597.393,597.125z
	 M654.592,594.025l-25.9-6.9v-8.999l26.2,14.999C654.791,593.525,654.692,593.725,654.592,594.025z M627.692,586.926l-26.199-6.9
	l4.1-15.1l22.2,12.7L627.692,586.926z M600.492,579.725l-8.2-2.2l-6.3-23.899l18.6,10.7L600.492,579.725z M579.193,527.526l5.8-5.8
	l11.1,10.899l-10.699,18.5L579.193,527.526z M585.693,521.026l20.1-20l4.3,7.4l-13.5,23.3L585.693,521.026z M606.592,500.226
	l16.9-16.899c0.199,0.199,0.5,0.399,0.699,0.6l-13.6,23.399L606.592,500.226z M621.092,479.327l-23.1,6.199l-4.1-7.199h27.1
	C620.992,478.726,621.092,479.026,621.092,479.327z M597.092,485.827l-26.899,7.3l-3.899-14.7h26.499L597.092,485.827z
	 M569.193,493.326l-9,2.4l-17.199-17v-0.399h22.3L569.193,493.326z M541.493,477.427l-17.101-16.899l2.5-9.3l15.2,4.1l-0.1,22.1
	H541.493z M527.093,450.227l6.9-25.601l8,4.601l-0.101,25L527.093,450.227z M534.293,423.627l7-25.699c0.3,0.1,0.6,0.1,0.899,0.1
	l-0.1,30L534.293,423.627z M517.394,415.127l-19.5,19.301l-11-10.9l22.6-13L517.394,415.127z M497.194,435.127l-5.6,5.601l-23.4-6.3
	l17.9-10.301L497.194,435.127z M490.694,441.527l-13.6,13.399l-11.1-19.3l0.899-0.5L490.694,441.527z M465.494,434.727
	L465.494,434.727L465.494,434.727L465.494,434.727z M464.594,435.227l-19.3,11.1l-5-18.399l23.7,6.399L464.594,435.227z
	 M439.994,426.827l-2.1-7.8l14.999-4l10.5,18L439.994,426.827z M437.594,418.127l-7.3-26.999h8.7l13.399,22.999L437.594,418.127z
	 M417.095,365.628l-14.3,24.5h-11.4l25-25.1C416.695,365.328,416.895,365.427,417.095,365.628z M402.295,391.128l-12.9,22.1
	l-16.6-4.4l17.6-17.699H402.295z M388.895,414.227l-11,18.899l-18.6-10.699l12.7-12.801L388.895,414.227z M358.396,421.927
	l-22.5-12.9l10.7-6.1l24.299,6.5L358.396,421.927z M334.896,408.427l-25.399-14.601c0.1-0.3,0.199-0.499,0.3-0.8l35.399,9.5
	L334.896,408.427z M304.296,397.727l6.6,24.4l-7.6,4.3l0.1-28.601C303.696,397.827,303.996,397.827,304.296,397.727z
	 M311.096,423.128l7.2,26.699l-15.101,4l0.101-26.2L311.096,423.128z M318.495,450.827l2.4,8.7l-17.8,17.8l0.1-22.5L318.495,450.827
	z M284.496,496.026l-9.3-2.5l4.1-15.1h22.7L284.496,496.026z M274.296,493.326l-25.999-6.899l4.6-8h25.5L274.296,493.326z
	 M247.297,486.226l-25.899-6.8c0.1-0.3,0.1-0.6,0.1-0.9h30.199L247.297,486.226z M219.097,483.427l19,18.8l-4.5,7.8l-15.199-26.1
	C218.597,483.827,218.898,483.627,219.097,483.427z M238.797,503.026l19.5,19.399l-11.101,11.2l-13.1-22.399L238.797,503.026z
	 M258.996,523.026l5.601,5.6l-6.5,23.7l-10.5-18L258.996,523.026z M265.496,529.426l13.3,13.101l-19.6,11.3l-0.2-0.4
	L265.496,529.426z M258.697,555.326l11.101,18.999l-17.9,4.801l6.5-23.601L258.697,555.326z M250.797,579.426l-8.101,2.2
	l-3.999-14.8l18.399-10.601L250.797,579.426z M241.697,581.926l-27.1,7.3v-8.5l23.101-13.399L241.697,581.926z M213.597,589.525
	l-23.299,6.3c-0.101-0.3-0.2-0.6-0.301-0.8l23.6-13.7V589.525z M189.497,602.225l24.1,13.699v11.4l-24.6-24.4
	C189.198,602.725,189.398,602.525,189.497,602.225z M214.597,616.525l22.5,12.8l-4.6,16.8l-18-17.8L214.597,616.525z
	 M237.997,629.925l19.1,10.9l-11,18.899l-12.8-12.7L237.997,629.925z M245.697,660.524l-12.899,22.1l-6.2-10.8l6.5-23.8
	L245.697,660.524z M232.198,683.624l-15,25.8c-0.3-0.1-0.5-0.2-0.8-0.3l9.8-35.8L232.198,683.624z M221.198,714.624l24.999-6.7
	l4.4,7.6h-29.3C221.297,715.223,221.198,714.924,221.198,714.624z M247.197,707.624l26.4-7.1l4,14.899h-25.9L247.197,707.624z
	 M274.597,700.324l8.8-2.4l17.699,17.5h-22.399L274.597,700.324z M319.796,734.023l-2.4,8.7l-15-4l0.101-22L319.796,734.023z
	 M317.196,743.723l-7.199,26.699l-7.7-4.399l0.1-26.2L317.196,743.723z M309.696,771.423l-6.6,24.5c-0.3-0.1-0.6-0.1-0.9-0.1
	l0.101-28.6L309.696,771.423z M325.995,779.523l19.8-19.8l11.101,11l-23.101,13.3L325.995,779.523z M346.495,759.123l6.1-6.1
	l24.101,6.3l-18.9,10.9L346.495,759.123z M403.494,766.523l2.2,8.3l-15.6,4.2l-11-18.8L403.494,766.523z M405.994,775.722
	l7.101,26.5h-9.4l-13.1-22.399L405.994,775.722z M426.195,828.423l14.6-25.3h12.3l-26.1,25.899
	C426.695,828.822,426.494,828.622,426.195,828.423z M441.395,802.123l12.899-22.3l17.5,4.6l-17.7,17.6L441.395,802.123z
	 M454.794,778.923l11.1-19.199l19.5,11.1l-12.8,12.8L454.794,778.923z M486.293,771.423l22.4,12.8l-10.7,6.101l-24.3-6.4
	L486.293,771.423z M509.594,784.823l25.199,14.3c-0.1,0.3-0.2,0.6-0.3,0.8l-35.1-9.3L509.594,784.823z M539.993,795.123l-6.5-24.1
	l7.6-4.4l-0.1,28.3C540.593,795.022,540.293,795.123,539.993,795.123z M533.194,770.023l-7.2-26.4l15.1-3.999l-0.1,25.899
	L533.194,770.023z M525.694,742.723l-2.301-8.3l17.7-17.6l-0.1,21.8L525.694,742.723z M559.693,698.324l8.4,2.2l-4,14.899h-21.6
	L559.693,698.324z M569.093,700.824l26.8,7.1l-4.4,7.5h-26.3L569.093,700.824z M596.893,708.223l23.999,6.4
	c-0.1,0.3-0.1,0.6-0.1,0.899h-28.1L596.893,708.223z M623.292,710.424l-17.5-17.5l4.2-7.199l14,24.1
	C623.692,710.023,623.492,710.223,623.292,710.424z M604.992,692.224l-19.5-19.601l10.7-10.6l13.199,22.7L604.992,692.224z
	 M584.792,671.925l-6.3-6.301l6.3-23.299l10.9,18.8L584.792,671.925z M591.992,615.525l8.6-2.3l4,15.3l-19.1,10.999L591.992,615.525
	z M601.592,612.925l26.1-7v9.3l-22.199,12.7L601.592,612.925z M628.692,605.725l25.9-6.9c0.1,0.3,0.199,0.601,0.3,0.8l-26.2,15.101
	V605.725z M655.392,592.325l-26.7-15.3v-12.199l27.3,26.799C655.791,591.825,655.592,592.125,655.392,592.325z M627.692,576.426
	l-21.899-12.6l4.6-17.101l17.3,17.101V576.426z M604.893,563.326l-19.101-11l11-19l12.8,12.6L604.893,563.326z M597.292,532.426
	l13.3-23.1l5.9,10.3l-6.7,25.2L597.292,532.426z M611.292,508.427l13.8-23.9c0.3,0.101,0.6,0.2,0.9,0.301l-9,33.499L611.292,508.427
	z M620.992,477.427h-27.7l-5.7-9.899l33.5,9C621.092,476.827,620.992,477.127,620.992,477.427z M592.193,477.427h-26.2
	l-4.399-16.899l24.699,6.6L592.193,477.427z M564.992,477.427h-21.999l0.1-21.899l17.399,4.699L564.992,477.427z M542.993,454.527
	l0.1-24.7l11,6.3l6,23L542.993,454.527z M543.093,428.627l0.1-30.6c0.301,0,0.601-0.1,0.9-0.1l9.7,36.8L543.093,428.627z
	 M508.394,409.927l-22.3,12.899l-13.2-13l24.1-6.399L508.394,409.927z M485.194,423.327l-18.5,10.7l-2-0.5l-10.8-18.7l17.9-4.7
	L485.194,423.327z M453.394,413.927l-13.199-22.8h12.399l18.4,18.1L453.394,413.927z M439.594,390.227l-14.3-24.6
	c0.3-0.2,0.5-0.4,0.8-0.6l25.5,25.1L439.594,390.227z M389.095,391.128l-17.3,17.399l-23.899-6.399l19.199-11H389.095z
	 M346.396,401.727l-36.399-9.7c0.1-0.3,0.1-0.6,0.1-0.899h54.899L346.396,401.727z M302.296,397.927l-0.101,29.199l-10.499,6
	l9.6-35.3C301.696,397.827,301.996,397.827,302.296,397.927z M302.296,428.227l-0.101,25.899l-17.399,4.6l6.601-24.299
	L302.296,428.227z M302.196,455.127l-0.1,22.3h-22.499l4.8-17.6L302.196,455.127z M278.597,477.427h-25.2l6.4-11.1l23.499-6.2
	L278.597,477.427z M216.597,484.927c0.301-0.1,0.601-0.2,0.9-0.4l15.5,26.6l-6.3,11L216.597,484.927z M233.597,512.126l12.9,22.2
	l-13,13.1l-6.4-23.899L233.597,512.126z M246.997,535.126l10.8,18.6l-0.301,1.101l-19.1,11l-4.699-17.4L246.997,535.126z
	 M237.497,566.426l-22.8,13.2v-12l18.3-18.3L237.497,566.426z M213.698,580.126l-24.2,13.899c-0.199-0.3-0.399-0.5-0.6-0.7
	l24.699-24.8L213.698,580.126z M188.298,603.625l25.299,25.1v20.6l-26.1-45.099C187.798,604.025,187.997,603.825,188.298,603.625z
	 M214.597,629.724l17.7,17.5l-6.4,23.399l-11.3-19.6V629.724z M225.497,672.024l-10,36.8c-0.3-0.101-0.6-0.101-0.9-0.101
	l0.101-55.599L225.497,672.024z M221.297,716.523h29.899l6,10.4l-35.999-9.5C221.198,717.124,221.297,716.824,221.297,716.523z
	 M252.297,716.523h25.6l4.6,17.101l-24-6.3L252.297,716.523z M278.897,716.523h22.499l-0.1,22l-17.8-4.7L278.897,716.523z
	 M301.396,739.523l-0.1,25.899l-10.899-6.199l-6.5-24.3L301.396,739.523z M301.296,766.623l-0.101,29.2c-0.3,0-0.6,0.1-0.899,0.1
	l-9.5-35.3L301.296,766.623z M334.795,784.623l22.8-13.1l12.8,12.699l-24.799,6.601L334.795,784.623z M358.495,771.023
	l19.399-11.101l11.3,19.3l-17.699,4.7L358.495,771.023z M389.695,780.023l12.9,22.199h-12.5l-17.7-17.6L389.695,780.023z
	 M403.195,803.222l14.9,25.5c-0.2,0.2-0.5,0.399-0.7,0.6l-26.3-26.1H403.195z M455.494,802.022l17.399-17.3l23.899,6.301
	l-18.999,10.899L455.494,802.022z M498.094,791.423l36.1,9.5c-0.101,0.3-0.101,0.6-0.101,0.9l-54.299,0.199L498.094,791.423z
	 M541.893,795.022l0.101-28.899l10.1-5.8l-9.3,34.899C542.493,795.123,542.193,795.022,541.893,795.022z M541.993,764.923l0.1-25.6
	l16.8-4.5l-6.4,24L541.993,764.923z M542.093,738.323l0.1-21.899h21.7l-4.6,17.3L542.093,738.323z M564.893,716.424h26l-6.101,10.5
	l-24.399,6.5L564.893,716.424z M625.692,709.024c-0.3,0.1-0.6,0.199-0.899,0.399l-14.3-24.6l6.1-10.399L625.692,709.024z
	 M609.992,683.724l-13-22.4l12.899-12.8l6.4,24.5L609.992,683.724z M596.393,660.425l-11.3-19.5v-0.2l19.699-11.3l4.7,17.899
	L596.393,660.425z M605.792,629.025l21.899-12.601v13l-17.3,17.2L605.792,629.025z M628.692,615.825l26.7-15.399
	c0.2,0.3,0.399,0.5,0.5,0.699l-27.3,27.2L628.692,615.825z M656.692,590.926l-27.899-27.5v-22.7l28.699,49.7
	C657.092,590.525,656.892,590.725,656.692,590.926z M627.692,562.426l-16.999-16.8l6.6-24.7l10.399,18.101V562.426z
	 M617.692,519.526l9.2-34.5c0.3,0.101,0.601,0.101,0.9,0.101l-0.101,51.799L617.692,519.526z M621.392,475.527l-34.499-9.2
	l-9.9-17.1l44.699,25.499C621.592,474.927,621.492,475.226,621.392,475.527z M585.592,465.927l-24.299-6.5l-5.9-22.6l20,11.4
	L585.592,465.927z M554.992,435.427l-9.899-37.8c0.3-0.101,0.6-0.2,0.9-0.4l28.399,49.199L554.992,435.427z M535.593,392.128
	l-38.499,10.199l-19.5-11.1h57.899C535.493,391.527,535.493,391.828,535.593,392.128z M495.694,402.727l-23.6,6.3l-18.1-17.8h21.6
	L495.694,402.727z M452.994,390.227l-26.2-25.899c0.2-0.2,0.4-0.5,0.5-0.7l46.5,26.6H452.994z M414.695,362.727l-47.899,27.4h-56.6
	c0-0.3-0.1-0.601-0.1-0.9l104.299-27.3C414.395,362.227,414.494,362.427,414.695,362.727z M299.697,397.128
	c0.3,0.1,0.5,0.199,0.8,0.3l-9.9,36.199l-17.799,10.2L299.697,397.128z M290.197,435.127l-6.5,23.9l-23.1,6.1l11.2-19.5
	L290.197,435.127z M259.197,465.527l-37.999,10.1c-0.101-0.3-0.2-0.6-0.3-0.8l49.199-28.2L259.197,465.527z M215.698,485.127
	l10.3,38.199l-11.2,19.6l0.101-57.599C215.097,485.226,215.398,485.226,215.698,485.127z M226.297,524.626l6.3,23.5l-17.899,18
	v-21.3L226.297,524.626z M213.698,567.126l-25.5,25.499c-0.2-0.199-0.5-0.399-0.7-0.6l26.2-45.499V567.126z M186.598,604.725
	l26.899,46.599l-0.1,57.3c-0.301,0-0.601,0.1-0.9,0.1l-26.899-103.698C186.098,605.025,186.398,604.925,186.598,604.725z
	 M220.898,718.324l36.899,9.699l10.8,18.6l-48-27.499C220.698,718.924,220.797,718.624,220.898,718.324z M259.197,728.424l23.6,6.2
	l6.4,23.8l-18.899-10.801L259.197,728.424z M289.596,759.823l9.8,36.3c-0.3,0.1-0.6,0.2-0.8,0.399l-27.199-47.099L289.596,759.823z
	 M308.896,801.623l36.6-9.8l18.3,10.5l-54.699,0.199C308.996,802.222,308.896,801.923,308.896,801.623z M346.795,791.522l24.4-6.499
	l17.399,17.3l-22.899,0.1L346.795,791.522z M389.695,803.222l27,26.8c-0.3,0.3-0.5,0.7-0.7,1.1l-48.499-27.799L389.695,803.222z
	 M428.895,831.322l49.1-28.3l56.099-0.199c0,0.3,0.101,0.6,0.101,0.899l-104.899,28.5
	C429.195,831.923,429.094,831.622,428.895,831.322z M544.593,795.722c-0.3-0.1-0.6-0.3-0.9-0.399l9.601-35.8l18.699-10.8
	L544.593,795.722z M553.693,758.223l6.3-23.6l24-6.4l-11,18.899L553.693,758.223z M585.393,727.824l35.699-9.5
	c0.1,0.3,0.2,0.6,0.4,0.8l-46.699,26.999L585.393,727.824z M626.692,708.723l-9.399-35.699l10.3-17.6l-0.1,53.199
	C627.292,708.624,626.992,708.723,626.692,708.723z M616.992,671.724l-6.3-24l16.999-16.899v22.699L616.992,671.724z
	 M628.692,629.825l28-27.899c0.2,0.199,0.5,0.399,0.7,0.5l-28.8,49.299L628.692,629.825z M659.092,589.525
	c-0.301,0.1-0.601,0.2-0.801,0.4l-29.499-51.1l0.1-53.5c0.8-0.1,1.5-0.199,2.2-0.499L659.092,589.525z M622.892,473.027
	c-0.2,0.3-0.399,0.5-0.6,0.8l-46.1-26.4l-29.3-50.699c0.2-0.2,0.5-0.3,0.7-0.5L622.892,473.027z M535.593,389.427
	c-0.1,0.3-0.1,0.5-0.1,0.8h-59.6l-47.999-27.399c0.1-0.3,0.3-0.6,0.399-0.9L535.593,389.427z M297.996,396.128
	c0.2,0.199,0.5,0.399,0.8,0.6l-27.8,48.2l-50.699,28.999c-0.2-0.2-0.3-0.5-0.5-0.7L297.996,396.128z M212.898,485.127
	c0.3,0.1,0.5,0.1,0.8,0.1l-0.101,59.3l-26.999,46.999c-0.3-0.1-0.601-0.3-0.9-0.4L212.898,485.127z M219.497,720.723
	c0.2-0.2,0.4-0.5,0.5-0.7l49.499,28.4l28,48.599c-0.3,0.2-0.5,0.4-0.7,0.601L219.497,720.723z M308.896,804.423
	c0.101-0.3,0.101-0.601,0.101-0.9l56.499-0.199l50.1,28.699c-0.101,0.3-0.2,0.6-0.3,1L308.896,804.423z M546.193,796.823
	c-0.199-0.2-0.5-0.4-0.699-0.5l28.299-48.5l48.3-27.8c0.2,0.301,0.3,0.5,0.5,0.7L546.193,796.823z M629.592,708.723
	c-0.3-0.1-0.6-0.1-1-0.1l0.1-54.899l29.6-50.799c0.301,0.1,0.5,0.199,0.801,0.3L629.592,708.723z"/>
<radialGradient id="SVGID_1_" cx="350.554" cy="1092.283" r="212.0586" gradientTransform="matrix(0.9659 -0.2588 -0.2588 -0.9659 368.5785 1741.7704)" gradientUnits="userSpaceOnUse">
	<stop  offset="0" style="stop-color:#FFFFFF"/>
	<stop  offset="0.3413" style="stop-color:#FFFFFF;stop-opacity:0.979"/>
	<stop  offset="1" style="stop-color:#FFFFFF;stop-opacity:0"/>
</radialGradient>
<circle fill="url(#SVGID_1_)" cx="424.494" cy="596.025" r="211.998"/>
<g>
	<path d="M310.296,575.626h-4.5c-2.8,0-4.601,0.8-5.5,2.3l-15.399,27.1l-15.2-27.1c-0.899-1.601-2.7-2.3-5.5-2.3h-4.6
		c-3.5,0-5.2,0.899-5.2,2.8v55.399c0,1.8,1.7,2.8,5.2,2.8h2.5c3.5,0,5.2-0.9,5.2-2.8v-35.8l0.3-0.1l12.5,22.399
		c0.8,1.1,2,1.6,3.5,1.6h2.499c1.5,0,2.7-0.5,3.5-1.6l12.5-22.399l0.3,0.1v35.8c0,1.8,1.7,2.8,5.2,2.8h2.5c3.5,0,5.2-0.9,5.2-2.8
		v-55.399C315.496,576.626,313.796,575.626,310.296,575.626z"/>
	<path d="M418.695,575.825h-40.899c-1.7,0-2.6,1.4-2.6,4.301v2.699c0,2.9,0.899,4.3,2.6,4.3h13.8v46.6c0,1.8,1.7,2.8,5.2,2.8h3
		c3.5,0,5.199-0.899,5.199-2.8v-46.6h13.8c1.7,0,2.601-1.399,2.601-4.3v-2.699C421.294,577.325,420.494,575.825,418.695,575.825z"/>
	<path d="M465.994,614.225c-0.801-1.801-1.7-3.5-2.9-5.101c-1.2-1.5-2.3-2.5-3.4-2.899v-0.301c3.101-1.199,5.601-2.899,7.4-5.3
		c1.8-2.399,2.7-5.199,2.7-8.399c0-10.8-7.2-16.3-21.6-16.3h-16.9c-2.3,0-3.5,1.2-3.5,3.5v54.499c0,1.8,1.7,2.8,5.2,2.8h2.9
		c3.5,0,5.199-0.899,5.199-2.8v-21.1h3.4c2.6,0,4.5,0.4,5.6,1.2c1.101,0.8,2.2,2.1,3.2,4l6.8,16.899c0.5,1.2,2.1,1.8,5,1.8h3.5
		c3.5,0,5.2-0.6,5.2-1.699c0-0.301-0.101-0.9-0.4-1.601L465.994,614.225z M454.195,599.025c-1.301,1.4-2.9,2.2-4.7,2.2h-8.2v-14h7.6
		c2.301,0,4,0.6,5.3,1.8c1.301,1.2,1.9,2.8,1.9,4.8C456.195,595.825,455.494,597.625,454.195,599.025z"/>
	<path d="M488.493,575.626h-3c-3.5,0-5.199,1-5.199,2.899v55.399c0,1.9,1.699,2.9,5.199,2.9h3c3.5,0,5.2-1,5.2-2.9v-55.399
		C493.694,576.525,491.894,575.626,488.493,575.626z"/>
	<path d="M545.793,622.325c-0.2,0-1,0.3-2.3,0.899c-3.8,1.7-7.8,2.601-11.9,2.601c-9.899,0-14.8-6.5-14.8-19.6
		c0-13.101,5-19.601,15-19.601c4.3,0,7.9,0.7,10.899,2.101c1,0.5,1.601,0.7,1.801,0.7c1,0,2.199-1,3.6-3.101c1.4-2.1,2-3.8,2-5
		c0-1.699-2-3.199-5.9-4.3c-3.899-1.2-7.999-1.7-12.199-1.7c-19.3,0-28.899,10.3-28.899,30.8c0,10.7,2.3,18.5,6.999,23.6
		c4.601,5,11.8,7.601,21.5,7.601c4.3,0,8.6-0.601,12.9-1.9c4.3-1.3,6.399-3.1,6.399-5.399c0-1-0.5-2.601-1.6-4.5
		C548.093,623.325,546.993,622.325,545.793,622.325z"/>
	<path d="M583.492,587.125h10.4c1.699,0,2.6-1.399,2.6-4.3v-2.699c0-2.9-0.9-4.301-2.6-4.301h-31.7c-2.3,0-3.5,1.2-3.5,3.5v7.9h13.3
		h11.5V587.125z"/>
	<path d="M579.193,611.025h12.3c1.7,0,2.6-1.4,2.6-4.3v-2.7c0-2.9-0.899-4.3-2.6-4.3h-32.8v11.3h13.3H579.193z"/>
	<path d="M593.992,625.125h-35.199v7.899c0,2.301,1.199,3.5,3.5,3.5h31.699c1.7,0,2.6-1.399,2.6-4.3v-2.699
		C596.592,626.525,595.693,625.125,593.992,625.125z"/>
	<path d="M355.196,577.525c-0.5-1.2-2.101-1.8-4.9-1.8h-4.5c-2.8,0-4.5,0.6-4.899,1.8l-19,55.6c-0.2,0.8-0.3,1.3-0.3,1.6
		c0,1.3,1.8,1.9,5.3,1.9h3.5c2.3,0,3.6-0.601,4-1.8l3.5-10.601l3.7-11.399c0,0,5.899-18.2,6.399-20.899h0.3l6.2,20.899l3.7,11.399
		l3.5,10.601c0.399,1.199,2,1.8,4.8,1.8h3.8c2.9,0,4.3-0.601,4.3-1.9c0-0.5-0.1-1-0.3-1.6L355.196,577.525z"/>
</g>
</svg>
