<?xml version="1.0" standalone="no"?>
<!DOCTYPE svg PUBLIC "-//W3C//DTD SVG 20010904//EN"
 "http://www.w3.org/TR/2001/REC-SVG-20010904/DTD/svg10.dtd">
<svg version="1.0" xmlns="http://www.w3.org/2000/svg"
 width="16.000000pt" height="16.000000pt" viewBox="0 0 16.000000 16.000000"
 preserveAspectRatio="xMidYMid meet">
<metadata>
Created by potrace 1.11, written by Peter Selinger 2001-2013
</metadata>
<g transform="translate(0.000000,16.000000) scale(0.001900,-0.001900)"
fill="#000000" stroke="none">
<path d="M6615 4939 c-296 -43 -469 -207 -532 -503 -24 -112 -24 -369 1 -483
56 -265 188 -414 426 -479 51 -15 103 -19 240 -19 151 0 186 3 258 23 153 42
212 85 212 154 -1 41 -56 145 -92 171 l-26 20 -65 -26 c-100 -40 -181 -58
-270 -58 -222 -2 -327 102 -358 353 -17 141 4 316 48 403 68 131 192 186 379
164 47 -5 111 -19 142 -30 97 -36 104 -36 146 11 45 50 75 113 76 157 0 44
-42 77 -138 107 -137 43 -302 56 -447 35z"/>
<path d="M134 4926 c-17 -8 -34 -21 -38 -31 -11 -29 -7 -1374 4 -1395 13 -25
70 -40 150 -40 72 0 135 14 147 33 4 7 10 209 13 450 l5 439 148 -266 c82
-146 158 -273 170 -281 14 -10 46 -15 95 -15 67 0 76 2 100 28 15 15 90 141
167 279 l140 253 5 -436 5 -436 22 -18 c47 -38 236 -37 274 1 18 18 19 49 19
712 0 693 0 694 -21 713 -19 17 -37 19 -154 19 -120 0 -136 -2 -161 -21 -18
-13 -96 -140 -207 -335 -98 -173 -181 -320 -186 -327 -4 -8 -72 103 -185 305
-98 175 -186 326 -195 337 -9 10 -30 25 -48 32 -43 18 -227 18 -269 0z"/>
<path d="M2204 4926 c-25 -11 -35 -26 -57 -87 -76 -216 -439 -1286 -444 -1310
-4 -22 0 -31 23 -45 22 -15 48 -19 134 -19 134 0 147 7 178 101 50 152 262
814 284 888 l24 78 62 -213 c121 -412 259 -823 282 -837 11 -7 53 -15 94 -18
135 -12 209 13 199 67 -2 13 -109 328 -236 699 l-232 675 -35 17 c-44 22 -228
25 -276 4z"/>
<path d="M3019 4921 c-23 -18 -24 -26 -24 -126 0 -148 -5 -145 216 -145 l169
0 0 -559 c0 -308 3 -567 6 -576 13 -32 59 -45 164 -45 111 0 153 13 164 52 3
13 6 272 6 576 l0 552 164 0 c90 0 172 3 181 6 28 11 45 60 45 132 0 86 -15
131 -47 143 -14 5 -240 9 -523 9 -475 0 -499 -1 -521 -19z"/>
<path d="M4300 4928 c-50 -27 -50 -16 -50 -736 l0 -673 23 -23 c29 -29 116
-42 208 -31 103 12 99 1 99 311 l0 267 83 -5 c94 -6 135 -23 171 -70 13 -18
64 -131 113 -252 66 -163 94 -223 113 -235 19 -13 51 -16 146 -16 106 0 125 3
143 19 12 11 21 23 21 29 0 25 -205 538 -231 579 -17 26 -47 62 -68 81 l-38
34 44 22 c64 31 129 95 160 160 25 50 28 67 28 161 0 92 -3 112 -26 161 -48
102 -130 164 -265 200 -70 19 -112 22 -364 26 -223 3 -290 1 -310 -9z m550
-296 c105 -52 107 -215 4 -282 -24 -17 -47 -20 -146 -20 l-118 0 0 160 0 160
113 0 c87 0 120 -4 147 -18z"/>
<path d="M5560 4927 c-51 -26 -50 -13 -47 -739 l2 -677 23 -23 c21 -21 31 -23
143 -23 120 0 121 0 145 28 l24 28 0 680 c0 425 -4 687 -10 699 -5 10 -24 23
-41 29 -44 15 -208 14 -239 -2z"/>
<path d="M7444 4926 c-17 -8 -34 -21 -38 -31 -3 -9 -6 -68 -6 -131 l0 -114
425 0 c303 0 431 3 450 12 31 14 40 43 40 133 0 92 -10 123 -41 135 -15 6
-187 10 -412 10 -302 -1 -394 -4 -418 -14z"/>
<path d="M7400 4220 l0 -140 408 0 c489 0 447 -13 447 140 0 153 42 140 -447
140 l-408 0 0 -140z"/>
<path d="M7400 3636 c0 -99 3 -117 21 -140 l20 -26 419 0 c463 0 443 -3 456
65 3 19 4 66 2 104 -6 120 32 111 -480 111 l-438 0 0 -114z"/>
</g>
</svg>
