<?xml version="1.0" encoding="UTF-8" standalone="no"?>
<svg width="751px" height="523px" viewBox="0 0 751 523" version="1.1" xmlns="http://www.w3.org/2000/svg" xmlns:xlink="http://www.w3.org/1999/xlink">
    <!-- Generator: Sketch 41.1 (35376) - http://www.bohemiancoding.com/sketch -->
    <title>Schéma-historique-philo</title>
    <desc>Created with Sketch.</desc>
    <defs></defs>
    <g id="Schéma-philosophie" stroke="none" stroke-width="1" fill="none" fill-rule="evenodd">
        <g id="Schéma-historique-philo">
            <g id="Group" transform="translate(375.793116, 272.444748) rotate(17.000000) translate(-375.793116, -272.444748) translate(232.293116, 123.444748)">
                <polygon id="Path-2" stroke="#D8D8D8" transform="translate(157.593848, 162.894729) rotate(5.000000) translate(-157.593848, -162.894729) " points="55.2903869 37.0187446 259.89731 103.853929 76.5570711 288.770713"></polygon>
                <polygon id="Path-2" stroke="#979797" transform="translate(146.482190, 137.067695) rotate(-12.000000) translate(-146.482190, -137.067695) " points="27.4995369 22.9610735 265.464843 83.54719 52.2334655 251.174316"></polygon>
                <ellipse id="Oval-2" fill="#D8D8D8" transform="translate(67.004082, 28.523622) rotate(-360.000000) translate(-67.004082, -28.523622) " cx="67.0040816" cy="28.523622" rx="4.96326531" ry="4.96062992"></ellipse>
                <ellipse id="Oval-2" fill="#A2A2A2" transform="translate(4.963265, 48.366142) rotate(-360.000000) translate(-4.963265, -48.366142) " cx="4.96326531" cy="48.3661417" rx="4.96326531" ry="4.96062992"></ellipse>
                <ellipse id="Oval-2" fill="#A2A2A2" transform="translate(254.239576, 59.243706) rotate(-360.000000) translate(-254.239576, -59.243706) " cx="254.239576" cy="59.2437063" rx="4.96326531" ry="4.96062992"></ellipse>
                <ellipse id="Oval-2" fill="#A2A2A2" transform="translate(78.171429, 268.458067) rotate(-360.000000) translate(-78.171429, -268.458067) " cx="78.1714286" cy="268.458067" rx="4.96326531" ry="4.96062992"></ellipse>
                <ellipse id="Oval-2" fill="#D8D8D8" transform="translate(264.930820, 113.428986) rotate(-360.000000) translate(-264.930820, -113.428986) " cx="264.93082" cy="113.428986" rx="4.96326531" ry="4.96062992"></ellipse>
                <ellipse id="Oval-2" fill="#D8D8D8" transform="translate(67.004082, 278.379327) rotate(-360.000000) translate(-67.004082, -278.379327) " cx="67.0040816" cy="278.379327" rx="4.96326531" ry="4.96062992"></ellipse>
            </g>
        </g>
    </g>
</svg>